<svg width="22" height="16" viewBox="0 0 22 16" fill="none" xmlns="http://www.w3.org/2000/svg">
<path d="M19 4H14V10H1V13H2C2 14.7 3.3 16 5 16C6.7 16 8 14.7 8 13H14C14 14.7 15.3 16 17 16C18.7 16 20 14.7 20 13H22V8L19 4ZM5 14.5C4.2 14.5 3.5 13.8 3.5 13C3.5 12.2 4.2 11.5 5 11.5C5.8 11.5 6.5 12.2 6.5 13C6.5 13.8 5.8 14.5 5 14.5ZM17 14.5C16.2 14.5 15.5 13.8 15.5 13C15.5 12.2 16.2 11.5 17 11.5C17.8 11.5 18.5 12.2 18.5 13C18.5 13.8 17.8 14.5 17 14.5ZM16 8V5.5H18.5L20.5 8H16ZM13 5.5C13 7.4 11.4 9 9.5 9H3.5C1.6 9 0 7.4 0 5.5C0 3.6 1.6 2 3.5 2H4V1H3V0H7V1H6V2H9.5C11.4 2 13 3.6 13 5.5Z" fill="#1890FF"/>
</svg>
