<svg width="51" height="51" viewBox="0 0 51 51" fill="none" xmlns="http://www.w3.org/2000/svg">
<g clip-path="url(#clip0_61_2270)">
<g clip-path="url(#clip1_61_2270)">
<mask id="path-1-inside-1_61_2270" fill="white">
<path d="M50.5 25.5C50.5 39.5833 39.3071 51 25.5 51C11.6929 51 0.5 39.5833 0.5 25.5C0.5 11.4167 11.6929 0 25.5 0C39.3071 0 50.5 11.4167 50.5 25.5ZM3 25.5C3 38.1749 13.0736 48.45 25.5 48.45C37.9264 48.45 48 38.1749 48 25.5C48 12.8251 37.9264 2.55 25.5 2.55C13.0736 2.55 3 12.8251 3 25.5Z"/>
</mask>
<path d="M50.5 25.5C50.5 39.5833 39.3071 51 25.5 51C11.6929 51 0.5 39.5833 0.5 25.5C0.5 11.4167 11.6929 0 25.5 0C39.3071 0 50.5 11.4167 50.5 25.5ZM3 25.5C3 38.1749 13.0736 48.45 25.5 48.45C37.9264 48.45 48 38.1749 48 25.5C48 12.8251 37.9264 2.55 25.5 2.55C13.0736 2.55 3 12.8251 3 25.5Z" stroke="#F5F5F5" stroke-width="12" mask="url(#path-1-inside-1_61_2270)"/>
<path d="M50.5 25.5C50.5 39.5833 39.3071 51 25.5 51C11.6929 51 0.5 39.5833 0.5 25.5C0.5 11.4167 11.6929 0 25.5 0C39.3071 0 50.5 11.4167 50.5 25.5ZM3 25.5C3 38.1749 13.0736 48.45 25.5 48.45C37.9264 48.45 48 38.1749 48 25.5C48 12.8251 37.9264 2.55 25.5 2.55C13.0736 2.55 3 12.8251 3 25.5Z" fill="#52C41A"/>
</g>
<path d="M38.0014 15.9375H35.8171C35.5108 15.9375 35.2202 16.0781 35.0327 16.3187L22.1483 32.6406L15.9702 24.8125C15.8767 24.6938 15.7576 24.5979 15.6218 24.5319C15.4859 24.4658 15.3369 24.4314 15.1858 24.4313H13.0014C12.7921 24.4313 12.6764 24.6719 12.8046 24.8344L21.3639 35.6781C21.7639 36.1844 22.5327 36.1844 22.9358 35.6781L38.1983 16.3375C38.3264 16.1781 38.2108 15.9375 38.0014 15.9375Z" fill="#52C41A"/>
</g>
<defs>
<clipPath id="clip0_61_2270">
<rect width="50" height="51" fill="white" transform="translate(0.5)"/>
</clipPath>
<clipPath id="clip1_61_2270">
<rect width="50" height="51" fill="white" transform="translate(0.5)"/>
</clipPath>
</defs>
</svg>
