<svg xmlns="http://www.w3.org/2000/svg" xmlns:xlink="http://www.w3.org/1999/xlink" width="500" zoomAndPan="magnify" viewBox="0 0 375 374.999991" height="500" preserveAspectRatio="xMidYMid meet" version="1.2"><defs><clipPath id="fa438ba5b0"><path d="M 32 49.21875 L 343 49.21875 L 343 304 L 32 304 Z M 32 49.21875 "/></clipPath><clipPath id="6336a920be"><path d="M 0 308 L 375 308 L 375 374.71875 L 0 374.71875 Z M 0 308 "/></clipPath><clipPath id="b6211f4fb8"><path d="M 106 5.335938 L 275 5.335938 L 275 174 L 106 174 Z M 106 5.335938 "/></clipPath></defs><g id="a1c215c58b"><g clip-rule="nonzero" clip-path="url(#fa438ba5b0)"><path style=" stroke:none;fill-rule:nonzero;fill:#a6e2f9;fill-opacity:1;" d="M 307.128906 303.425781 C 329.429688 276.554688 342.835938 242.054688 342.835938 204.425781 C 342.835938 118.707031 273.292969 49.21875 187.5 49.21875 C 101.710938 49.21875 32.164062 118.707031 32.164062 204.425781 C 32.164062 242.054688 45.574219 276.554688 67.871094 303.425781 L 307.128906 303.425781 "/></g><g clip-rule="nonzero" clip-path="url(#6336a920be)"><path style=" stroke:none;fill-rule:nonzero;fill:#57716d;fill-opacity:1;" d="M 0.246094 308.394531 L 0.246094 342.710938 C 0.246094 360.386719 84.082031 374.714844 187.5 374.714844 C 290.917969 374.714844 374.753906 360.386719 374.753906 342.710938 L 374.753906 308.394531 L 0.246094 308.394531 "/></g><path style=" stroke:none;fill-rule:nonzero;fill:#b8e051;fill-opacity:1;" d="M 187.5 276.386719 C 93.980469 276.386719 16.476562 288.109375 2.5 303.425781 L 372.503906 303.425781 C 358.523438 288.109375 281.023438 276.386719 187.5 276.386719 "/><path style=" stroke:none;fill-rule:nonzero;fill:#b8e051;fill-opacity:1;" d="M 187.5 340.402344 C 249.566406 340.402344 304.5625 335.242188 338.640625 327.292969 L 36.363281 327.292969 C 70.4375 335.242188 125.4375 340.402344 187.5 340.402344 "/><path style=" stroke:none;fill-rule:nonzero;fill:#63827e;fill-opacity:1;" d="M 374.753906 308.394531 C 374.753906 306.703125 373.980469 305.042969 372.503906 303.425781 L 2.5 303.425781 C 1.023438 305.042969 0.246094 306.703125 0.246094 308.394531 C 0.246094 315.464844 13.660156 321.996094 36.363281 327.292969 L 338.640625 327.292969 C 361.335938 321.996094 374.753906 315.464844 374.753906 308.394531 "/><path style=" stroke:none;fill-rule:nonzero;fill:#82d7f7;fill-opacity:1;" d="M 69.8125 218.09375 L 64.46875 218.09375 L 64.46875 189.144531 L 81.054688 189.144531 L 81.054688 207.675781 C 76.675781 210.402344 72.851562 213.945312 69.8125 218.09375 M 310.535156 205.453125 C 305.320312 202.988281 299.492188 201.613281 293.34375 201.613281 L 273.578125 201.613281 L 273.578125 184.730469 L 252.871094 184.730469 L 252.871094 201.613281 L 232.167969 201.613281 L 232.167969 193.171875 L 208.203125 193.171875 L 208.203125 201.613281 L 146.425781 201.613281 L 146.425781 184.730469 L 125.726562 184.730469 L 125.726562 201.613281 L 105.019531 201.613281 L 105.019531 169.820312 L 86.246094 169.820312 L 86.246094 144.351562 L 111.453125 144.351562 L 111.453125 170.074219 L 133.234375 170.074219 L 133.234375 182.273438 L 154.664062 182.273438 L 154.664062 164.746094 L 176.4375 164.746094 L 176.4375 135.640625 L 198.214844 135.640625 L 198.214844 189.144531 L 219.992188 189.144531 L 219.992188 144.351562 L 245.203125 144.351562 L 245.203125 178.742188 L 266.976562 178.742188 L 266.976562 152.652344 L 288.757812 152.652344 L 288.757812 135.640625 L 310.535156 135.640625 L 310.535156 205.453125 "/><path style=" stroke:none;fill-rule:nonzero;fill:#6acff6;fill-opacity:1;" d="M 60.351562 284.902344 L 60.351562 218.09375 L 69.8125 218.09375 C 64.917969 224.757812 62.027344 232.980469 62.027344 241.882812 L 62.027344 245.421875 C 62.027344 261.34375 71.277344 275.105469 84.699219 281.636719 C 76.0625 282.609375 67.910156 283.707031 60.351562 284.902344 M 314.652344 284.902344 C 311.878906 284.460938 309.027344 284.035156 306.105469 283.625 C 309.128906 282.617188 311.996094 281.261719 314.652344 279.605469 L 314.652344 284.902344 M 169.597656 241.820312 L 169.597656 241.816406 L 169.597656 241.820312 M 169.597656 241.761719 C 169.597656 241.757812 169.597656 241.757812 169.597656 241.753906 C 169.597656 241.757812 169.597656 241.757812 169.597656 241.761719 M 169.597656 241.699219 C 169.597656 241.699219 169.597656 241.695312 169.597656 241.695312 C 169.597656 241.695312 169.597656 241.699219 169.597656 241.699219 M 169.597656 241.636719 C 169.597656 241.632812 169.597656 241.632812 169.597656 241.628906 C 169.597656 241.628906 169.597656 241.632812 169.597656 241.636719 M 169.597656 241.574219 C 169.597656 241.574219 169.597656 241.570312 169.597656 241.566406 C 169.597656 241.570312 169.597656 241.574219 169.597656 241.574219 M 169.59375 241.515625 C 169.59375 241.511719 169.59375 241.507812 169.59375 241.507812 C 169.59375 241.507812 169.59375 241.511719 169.59375 241.515625 M 169.59375 241.449219 C 169.59375 241.445312 169.59375 241.445312 169.59375 241.441406 C 169.59375 241.445312 169.59375 241.445312 169.59375 241.449219 M 169.59375 241.386719 C 169.59375 241.386719 169.59375 241.382812 169.59375 241.382812 C 169.59375 241.382812 169.59375 241.386719 169.59375 241.386719 M 81.054688 207.675781 L 81.054688 169.820312 L 105.019531 169.820312 L 105.019531 201.613281 L 102.332031 201.613281 C 94.519531 201.613281 87.230469 203.832031 81.054688 207.675781 M 132.316406 201.726562 C 131.320312 201.65625 130.3125 201.613281 129.296875 201.613281 L 125.726562 201.613281 L 125.726562 184.730469 L 146.425781 184.730469 L 146.425781 201.613281 L 132.316406 201.613281 L 132.316406 201.726562 M 273.578125 201.613281 L 252.871094 201.613281 L 252.871094 184.730469 L 273.578125 184.730469 L 273.578125 201.613281 M 232.167969 201.613281 L 208.203125 201.613281 L 208.203125 193.171875 L 232.167969 193.171875 L 232.167969 201.613281 "/><path style=" stroke:none;fill-rule:nonzero;fill:#88d04b;fill-opacity:1;" d="M 314.652344 285.207031 L 299.585938 285.207031 C 301.824219 284.859375 304.003906 284.328125 306.105469 283.625 C 309.027344 284.035156 311.878906 284.460938 314.652344 284.902344 L 314.652344 285.207031 M 96.085938 285.207031 L 60.351562 285.207031 L 60.351562 284.902344 C 67.910156 283.707031 76.0625 282.609375 84.699219 281.636719 C 88.234375 283.363281 92.0625 284.582031 96.085938 285.207031 "/><path style=" stroke:none;fill-rule:nonzero;fill:#669a36;fill-opacity:1;" d="M 18.96875 288.550781 C 18.96875 284.234375 21.789062 280.574219 25.695312 279.3125 C 25.644531 278.890625 25.601562 278.46875 25.601562 278.035156 C 25.601562 272.667969 29.960938 268.320312 35.332031 268.320312 C 39.691406 268.320312 43.375 271.183594 44.613281 275.132812 C 45.914062 274.492188 47.371094 274.121094 48.914062 274.121094 C 48.914062 268.753906 53.273438 264.40625 58.640625 264.40625 C 61.523438 264.40625 64.101562 265.664062 65.886719 267.652344 C 67.40625 264.273438 70.796875 261.917969 74.746094 261.917969 C 80.117188 261.917969 84.472656 266.265625 84.472656 271.632812 C 84.472656 274.496094 83.226562 277.058594 81.253906 278.839844 L 81.339844 278.835938 C 86.710938 278.835938 91.070312 283.1875 91.070312 288.550781 C 91.070312 293.921875 86.710938 298.265625 81.339844 298.265625 L 27.140625 298.265625 L 27.1875 298.144531 C 22.539062 297.414062 18.96875 293.40625 18.96875 288.550781 "/><path style=" stroke:none;fill-rule:nonzero;fill:#669a36;fill-opacity:1;" d="M 279.578125 288.28125 C 279.578125 284.351562 282.148438 281.027344 285.699219 279.878906 C 285.652344 279.5 285.613281 279.113281 285.613281 278.71875 C 285.613281 273.839844 289.574219 269.886719 294.457031 269.886719 C 298.417969 269.886719 301.773438 272.488281 302.894531 276.082031 C 304.074219 275.496094 305.402344 275.160156 306.808594 275.160156 C 306.808594 270.28125 310.765625 266.328125 315.648438 266.328125 C 318.265625 266.328125 320.609375 267.472656 322.230469 269.277344 C 323.617188 266.207031 326.703125 264.066406 330.289062 264.066406 C 335.171875 264.066406 339.132812 268.019531 339.132812 272.898438 C 339.132812 275.5 338 277.835938 336.207031 279.449219 L 336.28125 279.445312 C 341.167969 279.445312 345.125 283.40625 345.125 288.28125 C 345.125 293.160156 341.167969 297.113281 336.28125 297.113281 L 287.011719 297.113281 L 287.054688 297 C 282.824219 296.339844 279.578125 292.695312 279.578125 288.28125 "/><path style=" stroke:none;fill-rule:nonzero;fill:#435e5c;fill-opacity:1;" d="M 187.5 325.738281 C 103.699219 325.738281 35.765625 321.09375 35.765625 315.355469 C 35.765625 309.625 103.699219 304.976562 187.5 304.976562 C 271.304688 304.976562 339.238281 309.625 339.238281 315.355469 C 339.238281 321.09375 271.304688 325.738281 187.5 325.738281 "/><path style=" stroke:none;fill-rule:nonzero;fill:#8c1a1f;fill-opacity:1;" d="M 313.261719 291.71875 L 172.71875 291.71875 L 172.71875 285.683594 L 313.261719 285.683594 L 313.261719 291.71875 "/><path style=" stroke:none;fill-rule:nonzero;fill:#e12c37;fill-opacity:1;" d="M 293.34375 201.613281 L 132.316406 201.613281 L 132.316406 201.738281 C 153.160156 203.285156 169.597656 220.660156 169.597656 241.882812 L 169.597656 245.421875 C 169.597656 266.644531 153.160156 284.015625 132.316406 285.566406 L 132.316406 285.6875 L 293.34375 285.6875 C 315.605469 285.6875 333.644531 267.660156 333.644531 245.421875 L 333.644531 241.882812 C 333.644531 219.644531 315.605469 201.613281 293.34375 201.613281 "/><path style=" stroke:none;fill-rule:nonzero;fill:#f03a45;fill-opacity:1;" d="M 169.597656 245.421875 C 169.597656 267.660156 151.558594 285.6875 129.296875 285.6875 L 102.332031 285.6875 C 80.074219 285.6875 62.027344 267.660156 62.027344 245.421875 L 62.027344 241.882812 C 62.027344 219.644531 80.074219 201.613281 102.332031 201.613281 L 129.296875 201.613281 C 151.558594 201.613281 169.597656 219.644531 169.597656 241.882812 L 169.597656 245.421875 "/><path style=" stroke:none;fill-rule:nonzero;fill:#c0252e;fill-opacity:1;" d="M 164.441406 245.253906 C 164.441406 265.359375 148.132812 281.65625 128.007812 281.65625 L 103.625 281.65625 C 83.496094 281.65625 67.183594 265.359375 67.183594 245.253906 L 67.183594 242.050781 C 67.183594 221.941406 83.496094 205.644531 103.625 205.644531 L 128.007812 205.644531 C 148.132812 205.644531 164.441406 221.941406 164.441406 242.050781 L 164.441406 245.253906 "/><path style=" stroke:none;fill-rule:nonzero;fill:#16181c;fill-opacity:1;" d="M 221.523438 304.398438 C 221.523438 311.597656 227.367188 317.429688 234.574219 317.429688 C 241.777344 317.429688 247.617188 311.597656 247.617188 304.398438 C 247.617188 297.199219 241.777344 291.363281 234.574219 291.363281 C 227.367188 291.363281 221.523438 297.199219 221.523438 304.398438 "/><path style=" stroke:none;fill-rule:nonzero;fill:#1d2128;fill-opacity:1;" d="M 223.460938 304.398438 C 223.460938 311.597656 229.304688 317.429688 236.507812 317.429688 C 243.714844 317.429688 249.558594 311.597656 249.558594 304.398438 C 249.558594 297.199219 243.714844 291.363281 236.507812 291.363281 C 229.304688 291.363281 223.460938 297.199219 223.460938 304.398438 "/><path style=" stroke:none;fill-rule:nonzero;fill:#131418;fill-opacity:1;" d="M 229.195312 304.398438 C 229.195312 308.433594 232.46875 311.707031 236.507812 311.707031 C 240.554688 311.707031 243.824219 308.433594 243.824219 304.398438 C 243.824219 300.363281 240.554688 297.085938 236.507812 297.085938 C 232.46875 297.085938 229.195312 300.363281 229.195312 304.398438 "/><path style=" stroke:none;fill-rule:nonzero;fill:#16181c;fill-opacity:1;" d="M 117.332031 304.398438 C 117.332031 311.597656 123.175781 317.429688 130.382812 317.429688 C 137.585938 317.429688 143.425781 311.597656 143.425781 304.398438 C 143.425781 297.199219 137.585938 291.363281 130.382812 291.363281 C 123.175781 291.363281 117.332031 297.199219 117.332031 304.398438 "/><path style=" stroke:none;fill-rule:nonzero;fill:#1d2128;fill-opacity:1;" d="M 119.273438 304.398438 C 119.273438 311.597656 125.113281 317.429688 132.316406 317.429688 C 139.523438 317.429688 145.367188 311.597656 145.367188 304.398438 C 145.367188 297.199219 139.523438 291.363281 132.316406 291.363281 C 125.113281 291.363281 119.273438 297.199219 119.273438 304.398438 "/><path style=" stroke:none;fill-rule:nonzero;fill:#131418;fill-opacity:1;" d="M 125 304.398438 C 125 308.433594 128.277344 311.707031 132.316406 311.707031 C 136.359375 311.707031 139.636719 308.433594 139.636719 304.398438 C 139.636719 300.363281 136.359375 297.085938 132.316406 297.085938 C 128.277344 297.085938 125 300.363281 125 304.398438 "/><path style=" stroke:none;fill-rule:nonzero;fill:#0e1117;fill-opacity:1;" d="M 313.261719 295.046875 L 150.914062 295.046875 L 150.914062 291.71875 L 313.261719 291.71875 L 313.261719 295.046875 "/><path style=" stroke:none;fill-rule:nonzero;fill:#16181c;fill-opacity:1;" d="M 45.714844 304.398438 C 45.714844 311.597656 51.558594 317.429688 58.761719 317.429688 C 65.964844 317.429688 71.804688 311.597656 71.804688 304.398438 C 71.804688 297.199219 65.964844 291.363281 58.761719 291.363281 C 51.558594 291.363281 45.714844 297.199219 45.714844 304.398438 "/><path style=" stroke:none;fill-rule:nonzero;fill:#1d2128;fill-opacity:1;" d="M 47.652344 304.398438 C 47.652344 311.597656 53.492188 317.429688 60.699219 317.429688 C 67.902344 317.429688 73.746094 311.597656 73.746094 304.398438 C 73.746094 297.199219 67.902344 291.363281 60.699219 291.363281 C 53.492188 291.363281 47.652344 297.199219 47.652344 304.398438 "/><path style=" stroke:none;fill-rule:nonzero;fill:#131418;fill-opacity:1;" d="M 53.382812 304.398438 C 53.382812 308.433594 56.660156 311.707031 60.699219 311.707031 C 64.742188 311.707031 68.015625 308.433594 68.015625 304.398438 C 68.015625 300.363281 64.742188 297.085938 60.699219 297.085938 C 56.660156 297.085938 53.382812 300.363281 53.382812 304.398438 "/><path style=" stroke:none;fill-rule:nonzero;fill:#1d2128;fill-opacity:1;" d="M 49.472656 257.8125 C 49.472656 258.230469 49.816406 258.570312 50.234375 258.570312 L 56.214844 258.570312 C 56.628906 258.570312 56.972656 258.230469 56.972656 257.8125 L 56.972656 240.261719 C 56.972656 239.847656 56.628906 239.507812 56.214844 239.507812 L 50.234375 239.507812 C 49.816406 239.507812 49.472656 239.847656 49.472656 240.261719 L 49.472656 257.8125 "/><path style=" stroke:none;fill-rule:nonzero;fill:#1d2128;fill-opacity:1;" d="M 58.15625 232.421875 L 55.636719 232.421875 L 55.636719 232.96875 L 55.707031 232.425781 C 55.683594 232.425781 55.566406 232.410156 55.375 232.410156 C 55.007812 232.414062 54.382812 232.453125 53.785156 232.808594 C 53.484375 232.984375 53.195312 233.253906 52.996094 233.621094 C 52.792969 233.984375 52.675781 234.4375 52.675781 234.96875 L 52.675781 240.613281 C 52.675781 240.914062 52.921875 241.160156 53.222656 241.160156 C 53.523438 241.160156 53.773438 240.914062 53.773438 240.613281 L 53.773438 234.96875 C 53.773438 234.589844 53.847656 234.332031 53.949219 234.148438 C 54.101562 233.878906 54.328125 233.726562 54.605469 233.625 C 54.875 233.527344 55.179688 233.5 55.375 233.5 L 55.527344 233.503906 L 55.566406 233.507812 L 55.574219 233.507812 L 55.589844 233.34375 L 55.570312 233.507812 L 55.574219 233.507812 L 55.589844 233.34375 L 55.570312 233.507812 L 55.636719 233.511719 L 58.15625 233.511719 C 58.457031 233.511719 58.703125 233.269531 58.703125 232.96875 C 58.703125 232.664062 58.457031 232.421875 58.15625 232.421875 "/><path style=" stroke:none;fill-rule:nonzero;fill:#1d2128;fill-opacity:1;" d="M 58.15625 264.285156 L 55.636719 264.285156 L 55.574219 264.289062 L 55.59375 264.457031 L 55.574219 264.289062 L 55.59375 264.457031 L 55.574219 264.289062 C 55.570312 264.289062 55.492188 264.296875 55.375 264.296875 C 55.117188 264.300781 54.664062 264.25 54.34375 264.054688 C 54.183594 263.957031 54.050781 263.832031 53.949219 263.648438 C 53.847656 263.464844 53.773438 263.210938 53.773438 262.828125 L 53.773438 257.1875 C 53.773438 256.882812 53.523438 256.640625 53.222656 256.640625 C 52.925781 256.640625 52.675781 256.882812 52.675781 257.1875 L 52.675781 262.828125 C 52.675781 263.363281 52.792969 263.8125 52.996094 264.179688 C 53.300781 264.734375 53.792969 265.042969 54.238281 265.199219 C 54.679688 265.359375 55.101562 265.386719 55.375 265.386719 C 55.566406 265.386719 55.683594 265.375 55.703125 265.371094 L 55.636719 264.832031 L 55.636719 265.375 L 58.15625 265.375 C 58.457031 265.375 58.703125 265.132812 58.703125 264.832031 C 58.703125 264.527344 58.457031 264.285156 58.15625 264.285156 "/><path style=" stroke:none;fill-rule:nonzero;fill:#f1dfda;fill-opacity:1;" d="M 59.757812 223.105469 C 58.730469 225.972656 44.378906 263.835938 44.378906 263.835938 L 92.863281 290.300781 L 92.863281 219.308594 L 65.046875 219.308594 C 65.046875 219.308594 61.125 219.308594 59.757812 223.105469 "/><path style=" stroke:none;fill-rule:nonzero;fill:#f1dfda;fill-opacity:1;" d="M 137.695312 295.597656 L 137.695312 219.308594 L 92.855469 219.308594 L 92.855469 295.597656 L 137.695312 295.597656 "/><path style=" stroke:none;fill-rule:nonzero;fill:#55c1cc;fill-opacity:1;" d="M 92.855469 272.382812 L 44.378906 263.835938 L 58.625 226.140625 L 92.855469 226.140625 L 92.855469 272.382812 "/><path style=" stroke:none;fill-rule:nonzero;fill:#36a7b8;fill-opacity:1;" d="M 52.019531 243.652344 L 58.625 226.140625 L 70.214844 226.140625 C 77.609375 234.066406 85.164062 241.835938 92.855469 249.46875 L 92.855469 272.382812 L 86.722656 272.382812 L 52.019531 243.652344 "/><path style=" stroke:none;fill-rule:nonzero;fill:#55c1cc;fill-opacity:1;" d="M 115.632812 263.824219 L 92.863281 263.835938 L 92.855469 226.140625 L 115.632812 226.140625 C 115.632812 226.140625 118.910156 225.867188 118.851562 230.511719 L 118.851562 259.183594 C 118.851562 259.183594 119.042969 263.332031 115.632812 263.824219 "/><path style=" stroke:none;fill-rule:nonzero;fill:#222b3d;fill-opacity:1;" d="M 118.851562 259.183594 L 118.851562 230.511719 C 118.910156 225.867188 115.632812 226.140625 115.632812 226.140625 L 112.773438 226.140625 L 112.773438 263.828125 L 115.632812 263.824219 C 119.042969 263.332031 118.851562 259.183594 118.851562 259.183594 "/><path style=" stroke:none;fill-rule:nonzero;fill:#3f5274;fill-opacity:1;" d="M 92.855469 231.148438 L 92.855469 226.140625 L 58.625 226.140625 L 56.738281 231.113281 L 92.855469 231.148438 "/><path style=" stroke:none;fill-rule:nonzero;fill:#222b3d;fill-opacity:1;" d="M 118.851562 231.148438 L 118.851562 230.511719 C 118.910156 225.867188 115.632812 226.140625 115.632812 226.140625 L 92.855469 226.140625 L 92.855469 231.148438 L 118.851562 231.148438 "/><path style=" stroke:none;fill-rule:nonzero;fill:#1d2128;fill-opacity:1;" d="M 102.753906 257.8125 C 102.753906 258.230469 102.414062 258.570312 102 258.570312 L 96.019531 258.570312 C 95.597656 258.570312 95.257812 258.230469 95.257812 257.8125 L 95.257812 240.261719 C 95.257812 239.847656 95.597656 239.507812 96.019531 239.507812 L 102 239.507812 C 102.414062 239.507812 102.753906 239.847656 102.753906 240.261719 L 102.753906 257.8125 "/><path style=" stroke:none;fill-rule:nonzero;fill:#1d2128;fill-opacity:1;" d="M 94.074219 233.511719 L 96.59375 233.511719 L 96.660156 233.507812 L 96.636719 233.308594 L 96.660156 233.507812 L 96.636719 233.308594 L 96.660156 233.507812 C 96.664062 233.507812 96.738281 233.5 96.855469 233.5 C 97.117188 233.496094 97.570312 233.550781 97.882812 233.746094 C 98.042969 233.84375 98.175781 233.964844 98.28125 234.148438 C 98.378906 234.332031 98.460938 234.589844 98.460938 234.96875 L 98.460938 240.613281 C 98.460938 240.914062 98.703125 241.160156 99.007812 241.160156 C 99.308594 241.160156 99.554688 240.914062 99.554688 240.613281 L 99.554688 234.96875 C 99.554688 234.4375 99.441406 233.984375 99.238281 233.617188 C 98.929688 233.066406 98.441406 232.753906 97.996094 232.597656 C 97.546875 232.4375 97.132812 232.410156 96.855469 232.410156 C 96.667969 232.410156 96.542969 232.425781 96.527344 232.425781 L 96.59375 232.96875 L 96.59375 232.421875 L 94.074219 232.421875 C 93.769531 232.421875 93.527344 232.664062 93.527344 232.96875 C 93.527344 233.269531 93.769531 233.511719 94.074219 233.511719 "/><path style=" stroke:none;fill-rule:nonzero;fill:#1d2128;fill-opacity:1;" d="M 94.074219 265.375 L 96.59375 265.375 L 96.59375 264.828125 L 96.527344 265.371094 C 96.542969 265.375 96.667969 265.386719 96.855469 265.386719 C 97.222656 265.382812 97.84375 265.34375 98.449219 264.988281 C 98.746094 264.8125 99.03125 264.546875 99.238281 264.179688 C 99.441406 263.8125 99.554688 263.363281 99.554688 262.828125 L 99.554688 257.1875 C 99.554688 256.882812 99.308594 256.640625 99.007812 256.640625 C 98.703125 256.640625 98.460938 256.882812 98.460938 257.1875 L 98.460938 262.828125 C 98.460938 263.210938 98.378906 263.464844 98.28125 263.648438 C 98.128906 263.921875 97.902344 264.074219 97.625 264.171875 C 97.355469 264.273438 97.046875 264.296875 96.855469 264.296875 L 96.699219 264.292969 L 96.664062 264.289062 L 96.660156 264.289062 L 96.640625 264.464844 L 96.660156 264.289062 L 96.640625 264.464844 L 96.660156 264.289062 L 96.59375 264.285156 L 94.074219 264.285156 C 93.769531 264.285156 93.527344 264.527344 93.527344 264.828125 C 93.527344 265.132812 93.769531 265.375 94.074219 265.375 "/><path style=" stroke:none;fill-rule:nonzero;fill:#e9e9e9;fill-opacity:1;" d="M 94.46875 263.835938 L 94.46875 226.136719 L 92.855469 226.140625 L 92.855469 263.835938 L 94.46875 263.835938 "/><path style=" stroke:none;fill-rule:nonzero;fill:#f1dfda;fill-opacity:1;" d="M 92.855469 295.597656 L 44.378906 295.597656 L 44.378906 263.835938 L 92.855469 263.835938 L 92.855469 295.597656 "/><path style=" stroke:none;fill-rule:nonzero;fill:#e0c5be;fill-opacity:1;" d="M 84.441406 295.597656 L 44.378906 295.597656 L 44.378906 263.835938 L 84.441406 263.835938 L 84.441406 295.597656 "/><path style=" stroke:none;fill-rule:nonzero;fill:#303d56;fill-opacity:1;" d="M 75.230469 286.171875 L 53.59375 286.171875 L 53.59375 269.886719 L 75.230469 269.886719 L 75.230469 286.171875 "/><path style=" stroke:none;fill-rule:nonzero;fill:#1c2432;fill-opacity:1;" d="M 74.160156 274.703125 L 54.664062 274.703125 L 54.664062 273.195312 L 74.160156 273.195312 L 74.160156 274.703125 "/><path style=" stroke:none;fill-rule:nonzero;fill:#1c2432;fill-opacity:1;" d="M 74.160156 277.421875 L 54.664062 277.421875 L 54.664062 275.914062 L 74.160156 275.914062 L 74.160156 277.421875 "/><path style=" stroke:none;fill-rule:nonzero;fill:#1c2432;fill-opacity:1;" d="M 74.160156 280.144531 L 54.664062 280.144531 L 54.664062 278.636719 L 74.160156 278.636719 L 74.160156 280.144531 "/><path style=" stroke:none;fill-rule:nonzero;fill:#1c2432;fill-opacity:1;" d="M 74.160156 282.867188 L 54.664062 282.867188 L 54.664062 281.355469 L 74.160156 281.355469 L 74.160156 282.867188 "/><path style=" stroke:none;fill-rule:nonzero;fill:#ffffff;fill-opacity:1;" d="M 49.007812 277.191406 L 44.378906 277.191406 L 44.378906 270.351562 L 49.007812 270.351562 L 49.007812 277.191406 "/><path style=" stroke:none;fill-rule:nonzero;fill:#f9a72b;fill-opacity:1;" d="M 46.058594 277.191406 L 44.378906 277.191406 L 44.378906 270.351562 L 46.058594 270.351562 L 46.058594 277.191406 "/><path style=" stroke:none;fill-rule:nonzero;fill:#ffffff;fill-opacity:1;" d="M 79.816406 277.191406 L 84.441406 277.191406 L 84.441406 270.351562 L 79.816406 270.351562 L 79.816406 277.191406 "/><path style=" stroke:none;fill-rule:nonzero;fill:#f9a72b;fill-opacity:1;" d="M 76.765625 277.191406 L 78.445312 277.191406 L 78.445312 270.351562 L 76.765625 270.351562 L 76.765625 277.191406 "/><path style=" stroke:none;fill-rule:nonzero;fill:#191b21;fill-opacity:1;" d="M 106.761719 292.308594 L 44.378906 292.308594 L 44.378906 293.636719 L 106.761719 293.636719 L 106.761719 292.308594 "/><path style=" stroke:none;fill-rule:nonzero;fill:#303d56;fill-opacity:1;" d="M 109.660156 293.636719 L 44.363281 293.636719 L 41.359375 298.320312 L 41.359375 302.203125 C 41.359375 304.046875 42.851562 305.539062 44.699219 305.539062 L 109.660156 305.539062 L 109.660156 293.636719 "/><path style=" stroke:none;fill-rule:nonzero;fill:#3f5274;fill-opacity:1;" d="M 41.359375 298.320312 L 41.359375 302.203125 C 41.359375 304.046875 42.851562 305.539062 44.699219 305.539062 L 109.660156 305.539062 L 109.660156 298.320312 L 41.359375 298.320312 "/><path style=" stroke:none;fill-rule:nonzero;fill:#242e41;fill-opacity:1;" d="M 109.660156 293.636719 L 96.179688 293.636719 L 92.632812 298.300781 L 92.632812 305.539062 L 109.660156 305.539062 L 109.660156 293.636719 "/><path style=" stroke:none;fill-rule:nonzero;fill:#181e2a;fill-opacity:1;" d="M 105.328125 297.269531 L 96.539062 297.269531 L 96.539062 295.421875 L 105.328125 295.421875 L 105.328125 297.269531 "/><path style=" stroke:none;fill-rule:nonzero;fill:#181e2a;fill-opacity:1;" d="M 105.328125 300.398438 L 96.539062 300.398438 L 96.539062 298.550781 L 105.328125 298.550781 L 105.328125 300.398438 "/><path style=" stroke:none;fill-rule:nonzero;fill:#181e2a;fill-opacity:1;" d="M 105.328125 303.753906 L 96.539062 303.753906 L 96.539062 301.90625 L 105.328125 301.90625 L 105.328125 303.753906 "/><path style=" stroke:none;fill-rule:nonzero;fill:#ffffff;fill-opacity:1;" d="M 41.359375 302.65625 L 41.359375 298.300781 L 45.675781 298.300781 L 45.675781 302.65625 L 41.359375 302.65625 "/><path style=" stroke:none;fill-rule:nonzero;fill:#f9a72b;fill-opacity:1;" d="M 41.359375 300.289062 L 41.359375 298.296875 L 45.675781 298.296875 L 45.675781 300.289062 L 41.359375 300.289062 "/><path style=" stroke:none;fill-rule:nonzero;fill:#ffffff;fill-opacity:1;" d="M 74.152344 303.550781 L 74.152344 298.363281 L 78.476562 298.363281 L 78.476562 303.550781 L 74.152344 303.550781 "/><path style=" stroke:none;fill-rule:nonzero;fill:#f9a72b;fill-opacity:1;" d="M 74.152344 300.734375 L 74.152344 298.363281 L 78.476562 298.363281 L 78.476562 300.734375 L 74.152344 300.734375 "/><path style=" stroke:none;fill-rule:nonzero;fill:#ffffff;fill-opacity:1;" d="M 67.179688 300.957031 L 51.695312 300.957031 L 51.695312 299.632812 L 67.179688 299.632812 L 67.179688 300.957031 "/><path style=" stroke:none;fill-rule:nonzero;fill:#ffffff;fill-opacity:1;" d="M 67.179688 303.316406 L 51.695312 303.316406 L 51.695312 301.992188 L 67.179688 301.992188 L 67.179688 303.316406 "/><path style=" stroke:none;fill-rule:nonzero;fill:#242e41;fill-opacity:1;" d="M 91.269531 289.445312 C 91.269531 289.445312 91.632812 282.070312 100.839844 282.40625 L 137.695312 282.40625 L 137.695312 305.539062 L 91.269531 305.539062 L 91.269531 289.445312 "/><path style=" stroke:none;fill-rule:nonzero;fill:#3f5274;fill-opacity:1;" d="M 92.089844 305.539062 L 92.089844 289.445312 L 91.269531 289.445312 L 92.089844 289.488281 L 91.796875 289.472656 L 92.089844 289.492188 L 92.089844 289.488281 L 91.796875 289.472656 L 92.089844 289.492188 C 92.085938 289.460938 92.203125 287.835938 93.253906 286.300781 C 93.777344 285.527344 94.527344 284.769531 95.636719 284.191406 C 96.742188 283.617188 98.21875 283.214844 100.230469 283.214844 C 100.417969 283.214844 100.609375 283.21875 100.804688 283.226562 L 136.875 283.226562 L 136.875 292.503906 L 138.515625 292.503906 L 138.515625 281.585938 L 100.839844 281.585938 L 100.839844 282.40625 L 100.867188 281.585938 C 100.648438 281.578125 100.4375 281.574219 100.230469 281.574219 C 97.96875 281.574219 96.1875 282.042969 94.8125 282.773438 C 92.746094 283.871094 91.636719 285.539062 91.078125 286.898438 C 90.507812 288.265625 90.453125 289.34375 90.449219 289.40625 L 90.449219 305.539062 L 92.089844 305.539062 "/><path style=" stroke:none;fill-rule:nonzero;fill:#151a24;fill-opacity:1;" d="M 307.574219 295.15625 L 241.054688 295.15625 L 241.054688 308.191406 L 307.574219 308.191406 L 307.574219 295.15625 "/><path style=" stroke:none;fill-rule:nonzero;fill:#0e1117;fill-opacity:1;" d="M 307.574219 301.675781 L 241.054688 301.675781 L 241.054688 308.191406 L 307.574219 308.191406 L 307.574219 301.675781 "/><path style=" stroke:none;fill-rule:nonzero;fill:#d82930;fill-opacity:1;" d="M 303.933594 308.191406 L 303.933594 300.464844 L 307.578125 300.464844 L 307.578125 308.191406 L 303.933594 308.191406 "/><path style=" stroke:none;fill-rule:nonzero;fill:#f9a72b;fill-opacity:1;" d="M 303.933594 304 L 303.933594 300.464844 L 307.578125 300.464844 L 307.578125 304 L 303.933594 304 "/><path style=" stroke:none;fill-rule:nonzero;fill:#151a24;fill-opacity:1;" d="M 200.476562 295.15625 L 133.960938 295.15625 L 133.960938 308.191406 L 200.476562 308.191406 L 200.476562 295.15625 "/><path style=" stroke:none;fill-rule:nonzero;fill:#0e1117;fill-opacity:1;" d="M 200.476562 301.675781 L 133.960938 301.675781 L 133.960938 308.191406 L 200.476562 308.191406 L 200.476562 301.675781 "/><path style=" stroke:none;fill-rule:nonzero;fill:#d82930;fill-opacity:1;" d="M 196.84375 308.191406 L 196.84375 300.464844 L 200.480469 300.464844 L 200.480469 308.191406 L 196.84375 308.191406 "/><path style=" stroke:none;fill-rule:nonzero;fill:#f9a72b;fill-opacity:1;" d="M 196.84375 304 L 196.84375 300.464844 L 200.480469 300.464844 L 200.480469 304 L 196.84375 304 "/><path style=" stroke:none;fill-rule:nonzero;fill:#16181c;fill-opacity:1;" d="M 273.628906 304.398438 C 273.628906 311.597656 279.46875 317.429688 286.675781 317.429688 C 293.878906 317.429688 299.722656 311.597656 299.722656 304.398438 C 299.722656 297.199219 293.878906 291.363281 286.675781 291.363281 C 279.46875 291.363281 273.628906 297.199219 273.628906 304.398438 "/><path style=" stroke:none;fill-rule:nonzero;fill:#1d2128;fill-opacity:1;" d="M 275.566406 304.398438 C 275.566406 311.597656 281.410156 317.429688 288.613281 317.429688 C 295.816406 317.429688 301.65625 311.597656 301.65625 304.398438 C 301.65625 297.199219 295.816406 291.363281 288.613281 291.363281 C 281.410156 291.363281 275.566406 297.199219 275.566406 304.398438 "/><path style=" stroke:none;fill-rule:nonzero;fill:#424d60;fill-opacity:1;" d="M 281.296875 304.398438 C 281.296875 308.433594 284.570312 311.707031 288.613281 311.707031 C 292.652344 311.707031 295.925781 308.433594 295.925781 304.398438 C 295.925781 300.363281 292.652344 297.085938 288.613281 297.085938 C 284.570312 297.085938 281.296875 300.363281 281.296875 304.398438 "/><path style=" stroke:none;fill-rule:nonzero;fill:#313946;fill-opacity:1;" d="M 283.945312 304.398438 C 283.945312 306.972656 286.035156 309.058594 288.613281 309.058594 C 291.1875 309.058594 293.277344 306.972656 293.277344 304.398438 C 293.277344 301.824219 291.1875 299.738281 288.613281 299.738281 C 286.035156 299.738281 283.945312 301.824219 283.945312 304.398438 "/><path style=" stroke:none;fill-rule:nonzero;fill:#16181c;fill-opacity:1;" d="M 243.132812 304.398438 C 243.132812 311.597656 248.972656 317.429688 256.179688 317.429688 C 263.382812 317.429688 269.222656 311.597656 269.222656 304.398438 C 269.222656 297.199219 263.382812 291.363281 256.179688 291.363281 C 248.972656 291.363281 243.132812 297.199219 243.132812 304.398438 "/><path style=" stroke:none;fill-rule:nonzero;fill:#1d2128;fill-opacity:1;" d="M 245.070312 304.398438 C 245.070312 311.597656 250.914062 317.429688 258.113281 317.429688 C 265.320312 317.429688 271.164062 311.597656 271.164062 304.398438 C 271.164062 297.199219 265.320312 291.363281 258.113281 291.363281 C 250.914062 291.363281 245.070312 297.199219 245.070312 304.398438 "/><path style=" stroke:none;fill-rule:nonzero;fill:#424d60;fill-opacity:1;" d="M 250.800781 304.398438 C 250.800781 308.433594 254.082031 311.707031 258.113281 311.707031 C 262.160156 311.707031 265.4375 308.433594 265.4375 304.398438 C 265.4375 300.363281 262.160156 297.085938 258.113281 297.085938 C 254.082031 297.085938 250.800781 300.363281 250.800781 304.398438 "/><path style=" stroke:none;fill-rule:nonzero;fill:#313946;fill-opacity:1;" d="M 253.453125 304.398438 C 253.453125 306.972656 255.539062 309.058594 258.113281 309.058594 C 260.695312 309.058594 262.785156 306.972656 262.785156 304.398438 C 262.785156 301.824219 260.695312 299.738281 258.113281 299.738281 C 255.539062 299.738281 253.453125 301.824219 253.453125 304.398438 "/><path style=" stroke:none;fill-rule:nonzero;fill:#9e9c9d;fill-opacity:1;" d="M 243.332031 306.25 L 243.332031 306.226562 C 243.328125 306.167969 243.320312 306 243.320312 305.742188 C 243.316406 304.53125 243.5 301.402344 244.988281 298.59375 C 245.726562 297.1875 246.777344 295.859375 248.289062 294.824219 C 249.804688 293.785156 251.800781 293.019531 254.507812 292.808594 L 254.425781 291.722656 L 254.425781 292.8125 L 289.320312 292.8125 L 289.472656 292.808594 C 290.179688 292.804688 293.078125 292.945312 295.671875 294.660156 C 296.976562 295.515625 298.21875 296.75 299.160156 298.601562 C 300.101562 300.453125 300.742188 302.945312 300.742188 306.324219 C 300.742188 306.929688 301.230469 307.417969 301.832031 307.417969 C 302.4375 307.417969 302.929688 306.929688 302.929688 306.324219 C 302.929688 302.671875 302.230469 299.820312 301.109375 297.617188 C 299.433594 294.296875 296.816406 292.511719 294.511719 291.613281 C 292.199219 290.707031 290.179688 290.625 289.472656 290.625 C 289.316406 290.625 289.222656 290.628906 289.203125 290.628906 L 289.265625 291.722656 L 289.265625 290.628906 L 254.335938 290.628906 C 251.304688 290.867188 248.902344 291.753906 247.058594 293.019531 C 244.277344 294.925781 242.796875 297.632812 242.019531 300.058594 C 241.238281 302.492188 241.132812 304.683594 241.128906 305.742188 C 241.128906 306.144531 241.148438 306.378906 241.148438 306.402344 C 241.195312 307.003906 241.714844 307.460938 242.320312 307.414062 C 242.917969 307.371094 243.375 306.851562 243.332031 306.25 "/><path style=" stroke:none;fill-rule:nonzero;fill:#16181c;fill-opacity:1;" d="M 131.269531 304.507812 C 131.328125 311.710938 137.21875 317.496094 144.425781 317.429688 C 151.628906 317.367188 157.414062 311.480469 157.355469 304.285156 C 157.292969 297.085938 151.402344 291.300781 144.203125 291.363281 C 136.996094 291.425781 131.203125 297.3125 131.269531 304.507812 "/><path style=" stroke:none;fill-rule:nonzero;fill:#1d2128;fill-opacity:1;" d="M 133.203125 304.492188 C 133.269531 311.695312 139.160156 317.480469 146.363281 317.414062 C 153.570312 317.351562 159.359375 311.464844 159.296875 304.269531 C 159.234375 297.066406 153.347656 291.285156 146.132812 291.347656 C 138.929688 291.410156 133.140625 297.296875 133.203125 304.492188 "/><path style=" stroke:none;fill-rule:nonzero;fill:#424d60;fill-opacity:1;" d="M 138.933594 304.445312 C 138.972656 308.480469 142.273438 311.726562 146.3125 311.691406 C 150.355469 311.652344 153.601562 308.355469 153.566406 304.316406 C 153.53125 300.28125 150.230469 297.035156 146.183594 297.070312 C 142.144531 297.109375 138.898438 300.40625 138.933594 304.445312 "/><path style=" stroke:none;fill-rule:nonzero;fill:#313946;fill-opacity:1;" d="M 141.585938 304.421875 C 141.609375 306.996094 143.714844 309.0625 146.285156 309.042969 C 148.867188 309.019531 150.933594 306.910156 150.914062 304.339844 C 150.890625 301.765625 148.789062 299.699219 146.210938 299.71875 C 143.632812 299.742188 141.566406 301.851562 141.585938 304.421875 "/><path style=" stroke:none;fill-rule:nonzero;fill:#16181c;fill-opacity:1;" d="M 162.398438 304.398438 C 162.398438 311.597656 168.242188 317.429688 175.445312 317.429688 C 182.648438 317.429688 188.488281 311.597656 188.488281 304.398438 C 188.488281 297.199219 182.648438 291.363281 175.445312 291.363281 C 168.242188 291.363281 162.398438 297.199219 162.398438 304.398438 "/><path style=" stroke:none;fill-rule:nonzero;fill:#1d2128;fill-opacity:1;" d="M 164.335938 304.398438 C 164.335938 311.597656 170.175781 317.429688 177.382812 317.429688 C 184.589844 317.429688 190.429688 311.597656 190.429688 304.398438 C 190.429688 297.199219 184.589844 291.363281 177.382812 291.363281 C 170.175781 291.363281 164.335938 297.199219 164.335938 304.398438 "/><path style=" stroke:none;fill-rule:nonzero;fill:#424d60;fill-opacity:1;" d="M 170.070312 304.398438 C 170.070312 308.433594 173.339844 311.707031 177.382812 311.707031 C 181.425781 311.707031 184.699219 308.433594 184.699219 304.398438 C 184.699219 300.363281 181.425781 297.085938 177.382812 297.085938 C 173.339844 297.085938 170.070312 300.363281 170.070312 304.398438 "/><path style=" stroke:none;fill-rule:nonzero;fill:#313946;fill-opacity:1;" d="M 172.71875 304.398438 C 172.71875 306.972656 174.808594 309.058594 177.382812 309.058594 C 179.957031 309.058594 182.046875 306.972656 182.046875 304.398438 C 182.046875 301.824219 179.957031 299.738281 177.382812 299.738281 C 174.808594 299.738281 172.71875 301.824219 172.71875 304.398438 "/><path style=" stroke:none;fill-rule:nonzero;fill:#9e9c9d;fill-opacity:1;" d="M 132.355469 305.460938 L 132.355469 305.441406 C 132.351562 305.378906 132.34375 305.210938 132.34375 304.953125 C 132.339844 303.746094 132.523438 300.613281 134.011719 297.808594 C 134.753906 296.402344 135.800781 295.074219 137.316406 294.035156 C 138.832031 293 140.824219 292.238281 143.53125 292.023438 L 143.445312 290.933594 L 143.445312 292.027344 L 178.34375 292.027344 L 178.496094 292.023438 C 179.207031 292.019531 182.097656 292.15625 184.695312 293.875 C 186 294.730469 187.242188 295.964844 188.1875 297.816406 C 189.125 299.667969 189.765625 302.15625 189.765625 305.539062 C 189.765625 306.144531 190.253906 306.632812 190.863281 306.632812 C 191.464844 306.632812 191.957031 306.144531 191.957031 305.539062 C 191.957031 301.886719 191.253906 299.03125 190.136719 296.828125 C 188.457031 293.511719 185.839844 291.730469 183.535156 290.828125 C 181.222656 289.917969 179.207031 289.839844 178.496094 289.839844 C 178.339844 289.839844 178.25 289.84375 178.230469 289.84375 L 178.285156 290.933594 L 178.285156 289.84375 L 143.445312 289.84375 L 143.363281 289.847656 C 140.328125 290.078125 137.925781 290.964844 136.078125 292.234375 C 133.300781 294.140625 131.820312 296.84375 131.039062 299.269531 C 130.261719 301.710938 130.160156 303.902344 130.160156 304.953125 C 130.160156 305.355469 130.175781 305.59375 130.175781 305.617188 C 130.21875 306.21875 130.738281 306.671875 131.34375 306.628906 C 131.945312 306.582031 132.398438 306.0625 132.355469 305.460938 "/><path style=" stroke:none;fill-rule:nonzero;fill:#16181c;fill-opacity:1;" d="M 95.539062 304.507812 C 95.597656 311.710938 101.488281 317.496094 108.703125 317.429688 C 115.90625 317.367188 121.691406 311.480469 121.632812 304.285156 C 121.566406 297.085938 115.675781 291.300781 108.472656 291.363281 C 101.265625 291.425781 95.476562 297.3125 95.539062 304.507812 "/><path style=" stroke:none;fill-rule:nonzero;fill:#1d2128;fill-opacity:1;" d="M 97.480469 304.492188 C 97.539062 311.695312 103.429688 317.480469 110.632812 317.414062 C 117.839844 317.351562 123.632812 311.464844 123.566406 304.269531 C 123.507812 297.066406 117.617188 291.285156 110.410156 291.347656 C 103.207031 291.410156 97.417969 297.296875 97.480469 304.492188 "/><path style=" stroke:none;fill-rule:nonzero;fill:#424d60;fill-opacity:1;" d="M 103.207031 304.445312 C 103.242188 308.480469 106.542969 311.726562 110.582031 311.691406 C 114.628906 311.652344 117.875 308.355469 117.839844 304.316406 C 117.800781 300.28125 114.5 297.035156 110.457031 297.070312 C 106.417969 297.109375 103.171875 300.40625 103.207031 304.445312 "/><path style=" stroke:none;fill-rule:nonzero;fill:#313946;fill-opacity:1;" d="M 105.855469 304.421875 C 105.878906 306.996094 107.984375 309.0625 110.5625 309.042969 C 113.140625 309.019531 115.207031 306.910156 115.1875 304.339844 C 115.164062 301.765625 113.058594 299.699219 110.480469 299.71875 C 107.90625 299.742188 105.835938 301.851562 105.855469 304.421875 "/><path style=" stroke:none;fill-rule:nonzero;fill:#bdbcbc;fill-opacity:1;" d="M 202.878906 292.484375 L 244.273438 292.484375 L 244.273438 308.191406 L 200.476562 308.191406 L 200.476562 296.085938 C 200.476562 296.085938 199.9375 292.59375 202.878906 292.484375 "/><path style=" stroke:none;fill-rule:nonzero;fill:#9e9c9d;fill-opacity:1;" d="M 213.097656 292.484375 L 202.878906 292.484375 C 199.9375 292.59375 200.476562 296.085938 200.476562 296.085938 L 200.476562 308.285156 L 210.691406 308.285156 L 210.691406 297.378906 C 210.691406 297.378906 210.160156 292.59375 213.097656 292.484375 "/><path style=" stroke:none;fill-rule:nonzero;fill:#cdb4ad;fill-opacity:1;" d="M 84.441406 279.144531 L 136.199219 279.144531 L 136.199219 219.308594 L 135.105469 219.308594 L 135.105469 278.050781 L 84.441406 278.050781 L 84.441406 279.144531 "/><path style=" stroke:none;fill-rule:nonzero;fill:#c0252e;fill-opacity:1;" d="M 298.574219 201.613281 L 133.960938 201.613281 L 133.960938 195.320312 L 298.574219 195.320312 L 298.574219 201.613281 "/><path style=" stroke:none;fill-rule:nonzero;fill:#e12c37;fill-opacity:1;" d="M 97.480469 201.613281 L 133.960938 201.613281 L 133.960938 195.320312 L 97.480469 195.320312 L 97.480469 201.613281 "/><path style=" stroke:none;fill-rule:nonzero;fill:#55c1cc;fill-opacity:1;" d="M 131.824219 263.160156 C 131.824219 263.898438 131.226562 264.488281 130.492188 264.488281 L 122.960938 264.488281 C 122.222656 264.488281 121.632812 263.898438 121.632812 263.160156 L 121.632812 227.417969 C 121.632812 226.679688 122.222656 226.089844 122.960938 226.089844 L 130.492188 226.089844 C 131.226562 226.089844 131.824219 226.679688 131.824219 227.417969 L 131.824219 263.160156 "/><path style=" stroke:none;fill-rule:nonzero;fill:#222b3d;fill-opacity:1;" d="M 130.492188 226.089844 L 127.335938 226.089844 C 128.070312 226.089844 128.667969 226.679688 128.667969 227.417969 L 128.667969 263.160156 C 128.667969 263.898438 128.070312 264.488281 127.335938 264.488281 L 130.492188 264.488281 C 131.226562 264.488281 131.824219 263.898438 131.824219 263.160156 L 131.824219 227.417969 C 131.824219 226.679688 131.226562 226.089844 130.492188 226.089844 "/><path style=" stroke:none;fill-rule:nonzero;fill:#222b3d;fill-opacity:1;" d="M 131.824219 231.113281 L 131.824219 227.417969 C 131.824219 226.679688 131.226562 226.089844 130.492188 226.089844 L 122.960938 226.089844 C 122.222656 226.089844 121.632812 226.679688 121.632812 227.417969 L 121.632812 231.113281 L 131.824219 231.113281 "/><path style=" stroke:none;fill-rule:nonzero;fill:#e63e46;fill-opacity:1;" d="M 324.089844 215.859375 L 160.054688 215.859375 C 158.777344 214.355469 157.390625 212.945312 155.910156 211.640625 L 319.941406 211.640625 C 321.421875 212.945312 322.8125 214.351562 324.089844 215.859375 "/><path style=" stroke:none;fill-rule:nonzero;fill:#f25359;fill-opacity:1;" d="M 160.054688 215.859375 L 160.046875 215.859375 C 158.765625 214.351562 157.371094 212.945312 155.886719 211.640625 L 155.910156 211.640625 C 157.390625 212.945312 158.777344 214.355469 160.054688 215.859375 "/><path style=" stroke:none;fill-rule:nonzero;fill:#e63e46;fill-opacity:1;" d="M 332.578125 232.699219 L 168.542969 232.699219 C 167.886719 229.886719 166.9375 227.183594 165.722656 224.632812 L 329.765625 224.632812 C 330.976562 227.183594 331.917969 229.886719 332.578125 232.699219 "/><path style=" stroke:none;fill-rule:nonzero;fill:#f25359;fill-opacity:1;" d="M 168.542969 232.699219 L 168.535156 232.699219 C 167.875 229.882812 166.925781 227.183594 165.707031 224.632812 L 165.722656 224.632812 C 166.9375 227.183594 167.886719 229.886719 168.542969 232.699219 "/><path style=" stroke:none;fill-rule:nonzero;fill:#e63e46;fill-opacity:1;" d="M 327.738281 220.886719 L 163.695312 220.886719 C 163.15625 220.007812 162.578125 219.144531 161.972656 218.3125 L 326.007812 218.3125 C 326.617188 219.148438 327.199219 220.003906 327.738281 220.886719 "/><path style=" stroke:none;fill-rule:nonzero;fill:#f25359;fill-opacity:1;" d="M 163.695312 220.886719 L 163.679688 220.886719 C 163.132812 220.007812 162.566406 219.144531 161.960938 218.3125 L 161.972656 218.3125 C 162.578125 219.144531 163.15625 220.007812 163.695312 220.886719 "/><path style=" stroke:none;fill-rule:nonzero;fill:#87d8f7;fill-opacity:1;" d="M 169.59375 245.921875 C 169.59375 245.921875 169.59375 245.917969 169.59375 245.917969 C 169.59375 245.917969 169.59375 245.921875 169.59375 245.921875 M 169.59375 245.859375 C 169.59375 245.855469 169.59375 245.855469 169.59375 245.851562 C 169.59375 245.855469 169.59375 245.855469 169.59375 245.859375 M 169.59375 245.796875 C 169.59375 245.796875 169.59375 245.792969 169.59375 245.792969 C 169.59375 245.792969 169.59375 245.796875 169.59375 245.796875 M 169.597656 245.738281 C 169.597656 245.734375 169.597656 245.734375 169.597656 245.730469 C 169.597656 245.734375 169.597656 245.734375 169.597656 245.738281 M 169.597656 245.671875 C 169.597656 245.667969 169.597656 245.667969 169.597656 245.664062 C 169.597656 245.667969 169.597656 245.667969 169.597656 245.671875 M 169.597656 245.613281 C 169.597656 245.609375 169.597656 245.605469 169.597656 245.605469 C 169.597656 245.609375 169.597656 245.609375 169.597656 245.613281 M 169.597656 245.546875 C 169.597656 245.542969 169.597656 245.542969 169.597656 245.539062 C 169.597656 245.542969 169.597656 245.542969 169.597656 245.546875 M 169.597656 245.484375 L 169.597656 245.480469 L 169.597656 245.484375 "/><path style=" stroke:none;fill-rule:nonzero;fill:#e63e46;fill-opacity:1;" d="M 333.296875 250.652344 L 169.261719 250.652344 C 169.457031 249.121094 169.574219 247.558594 169.59375 245.980469 C 169.59375 245.960938 169.59375 245.941406 169.59375 245.921875 C 169.59375 245.921875 169.59375 245.917969 169.59375 245.917969 C 169.59375 245.898438 169.59375 245.875 169.59375 245.859375 C 169.59375 245.855469 169.59375 245.855469 169.59375 245.851562 C 169.59375 245.835938 169.59375 245.816406 169.59375 245.796875 C 169.59375 245.796875 169.59375 245.792969 169.59375 245.792969 C 169.59375 245.773438 169.597656 245.757812 169.597656 245.738281 C 169.597656 245.734375 169.597656 245.734375 169.597656 245.730469 C 169.597656 245.710938 169.597656 245.691406 169.597656 245.671875 C 169.597656 245.667969 169.597656 245.667969 169.597656 245.664062 C 169.597656 245.648438 169.597656 245.628906 169.597656 245.613281 C 169.597656 245.609375 169.597656 245.609375 169.597656 245.605469 C 169.597656 245.585938 169.597656 245.570312 169.597656 245.546875 C 169.597656 245.542969 169.597656 245.542969 169.597656 245.539062 C 169.597656 245.519531 169.597656 245.503906 169.597656 245.484375 L 169.597656 245.480469 C 169.597656 245.476562 169.597656 245.46875 169.597656 245.464844 C 169.597656 245.464844 169.597656 245.464844 169.597656 245.460938 C 169.597656 245.449219 169.597656 245.4375 169.597656 245.421875 L 169.597656 244.460938 L 333.644531 244.460938 L 333.644531 245.421875 C 333.644531 245.4375 333.644531 245.449219 333.644531 245.460938 L 333.644531 245.464844 C 333.644531 247.222656 333.515625 248.953125 333.296875 250.652344 "/><path style=" stroke:none;fill-rule:nonzero;fill:#f25359;fill-opacity:1;" d="M 169.261719 250.652344 L 169.25 250.652344 C 169.472656 248.953125 169.59375 247.222656 169.597656 245.464844 C 169.597656 245.46875 169.597656 245.476562 169.597656 245.480469 L 169.597656 245.484375 C 169.597656 245.503906 169.597656 245.519531 169.597656 245.539062 C 169.597656 245.542969 169.597656 245.542969 169.597656 245.546875 C 169.597656 245.570312 169.597656 245.585938 169.597656 245.605469 C 169.597656 245.605469 169.597656 245.609375 169.597656 245.613281 C 169.597656 245.628906 169.597656 245.648438 169.597656 245.664062 C 169.597656 245.667969 169.597656 245.667969 169.597656 245.671875 C 169.597656 245.691406 169.597656 245.710938 169.597656 245.730469 C 169.597656 245.734375 169.597656 245.734375 169.597656 245.738281 C 169.597656 245.757812 169.59375 245.773438 169.59375 245.792969 C 169.59375 245.792969 169.59375 245.796875 169.59375 245.796875 C 169.59375 245.816406 169.59375 245.835938 169.59375 245.851562 C 169.59375 245.855469 169.59375 245.855469 169.59375 245.859375 C 169.59375 245.875 169.59375 245.898438 169.59375 245.917969 C 169.59375 245.917969 169.59375 245.921875 169.59375 245.921875 C 169.59375 245.941406 169.59375 245.960938 169.59375 245.980469 C 169.574219 247.558594 169.457031 249.121094 169.261719 250.652344 M 169.597656 245.460938 C 169.597656 245.449219 169.597656 245.4375 169.597656 245.421875 C 169.597656 245.4375 169.597656 245.449219 169.597656 245.460938 "/><path style=" stroke:none;fill-rule:nonzero;fill:#e63e46;fill-opacity:1;" d="M 333.59375 239.921875 L 169.550781 239.921875 C 169.507812 239.054688 169.441406 238.195312 169.34375 237.34375 L 333.382812 237.34375 C 333.480469 238.195312 333.550781 239.054688 333.59375 239.921875 "/><path style=" stroke:none;fill-rule:nonzero;fill:#f25359;fill-opacity:1;" d="M 169.550781 239.921875 C 169.507812 239.054688 169.429688 238.199219 169.332031 237.34375 L 169.34375 237.34375 C 169.441406 238.195312 169.507812 239.054688 169.550781 239.921875 "/><path style=" stroke:none;fill-rule:nonzero;fill:#f1dfda;fill-opacity:1;" d="M 189.582031 291.71875 L 189.582031 201.589844 C 189.496094 198.546875 188.875 196.160156 187.957031 194.308594 C 186.582031 191.527344 184.546875 189.992188 182.875 189.191406 C 181.203125 188.390625 179.890625 188.292969 179.792969 188.285156 L 179.71875 189.371094 L 179.875 188.292969 C 179.835938 188.289062 179.257812 188.203125 178.371094 188.203125 C 176.925781 188.207031 174.648438 188.40625 172.558594 189.644531 C 171.519531 190.257812 170.535156 191.152344 169.804688 192.382812 C 169.074219 193.609375 168.601562 195.160156 168.503906 197.054688 L 168.503906 201.613281 L 170.691406 201.613281 L 170.691406 197.113281 L 169.597656 197.113281 L 170.691406 197.167969 C 170.773438 195.566406 171.152344 194.390625 171.683594 193.496094 C 172.480469 192.167969 173.636719 191.410156 174.886719 190.949219 C 176.132812 190.5 177.453125 190.386719 178.371094 190.386719 C 178.746094 190.386719 179.054688 190.40625 179.261719 190.421875 C 179.367188 190.429688 179.445312 190.4375 179.496094 190.445312 L 179.554688 190.449219 L 179.5625 190.453125 L 179.589844 190.25 L 179.5625 190.453125 L 179.589844 190.25 L 179.5625 190.453125 L 179.640625 190.464844 L 179.640625 190.441406 L 179.640625 190.464844 L 179.640625 190.441406 L 179.640625 190.464844 C 179.765625 190.472656 181.667969 190.6875 183.5 192.140625 C 184.421875 192.871094 185.339844 193.90625 186.066406 195.425781 C 186.789062 196.945312 187.316406 198.960938 187.398438 201.65625 L 188.488281 201.621094 L 187.398438 201.621094 L 187.398438 291.71875 L 189.582031 291.71875 "/><path style=" stroke:none;fill-rule:nonzero;fill:#f1dfda;fill-opacity:1;" d="M 212.246094 291.71875 L 212.246094 201.589844 C 212.15625 198.546875 211.535156 196.164062 210.621094 194.308594 C 209.246094 191.527344 207.210938 189.992188 205.542969 189.191406 C 203.863281 188.390625 202.550781 188.292969 202.460938 188.285156 L 202.382812 189.371094 L 202.59375 188.300781 C 202.539062 188.292969 201.761719 188.140625 200.597656 188.140625 C 198.90625 188.144531 196.355469 188.453125 194.140625 190.136719 C 193.039062 190.980469 192.046875 192.171875 191.355469 193.765625 C 190.664062 195.359375 190.257812 197.347656 190.257812 199.8125 C 190.257812 200.410156 190.28125 201.039062 190.335938 201.699219 L 192.511719 201.535156 C 192.46875 200.925781 192.449219 200.355469 192.449219 199.8125 C 192.449219 197.585938 192.808594 195.902344 193.359375 194.632812 C 194.191406 192.738281 195.425781 191.71875 196.757812 191.097656 C 198.085938 190.484375 199.53125 190.324219 200.597656 190.328125 C 201.082031 190.324219 201.492188 190.359375 201.769531 190.386719 C 201.90625 190.402344 202.015625 190.417969 202.085938 190.429688 L 202.160156 190.441406 L 202.171875 190.445312 L 202.191406 190.34375 L 202.171875 190.441406 L 202.171875 190.445312 L 202.191406 190.34375 L 202.171875 190.441406 L 202.242188 190.460938 L 202.304688 190.464844 C 202.429688 190.472656 204.328125 190.6875 206.167969 192.140625 C 207.085938 192.871094 208.007812 193.90625 208.730469 195.425781 C 209.453125 196.945312 209.980469 198.960938 210.058594 201.65625 L 211.152344 201.621094 L 210.058594 201.621094 L 210.058594 291.71875 L 212.246094 291.71875 "/><path style=" stroke:none;fill-rule:nonzero;fill:#f1dfda;fill-opacity:1;" d="M 188.488281 210.453125 L 211.65625 210.453125 L 211.65625 208.269531 L 188.488281 208.269531 Z M 188.488281 210.453125 "/><path style=" stroke:none;fill-rule:nonzero;fill:#f1dfda;fill-opacity:1;" d="M 188.488281 220.398438 L 211.65625 220.398438 L 211.65625 218.214844 L 188.488281 218.214844 Z M 188.488281 220.398438 "/><path style=" stroke:none;fill-rule:nonzero;fill:#f1dfda;fill-opacity:1;" d="M 188.488281 230.347656 L 211.65625 230.347656 L 211.65625 228.160156 L 188.488281 228.160156 Z M 188.488281 230.347656 "/><path style=" stroke:none;fill-rule:nonzero;fill:#f1dfda;fill-opacity:1;" d="M 188.488281 240.289062 L 211.65625 240.289062 L 211.65625 238.109375 L 188.488281 238.109375 Z M 188.488281 240.289062 "/><path style=" stroke:none;fill-rule:nonzero;fill:#f1dfda;fill-opacity:1;" d="M 188.488281 250.234375 L 211.65625 250.234375 L 211.65625 248.050781 L 188.488281 248.050781 Z M 188.488281 250.234375 "/><path style=" stroke:none;fill-rule:nonzero;fill:#f1dfda;fill-opacity:1;" d="M 188.488281 260.183594 L 211.65625 260.183594 L 211.65625 258 L 188.488281 258 Z M 188.488281 260.183594 "/><path style=" stroke:none;fill-rule:nonzero;fill:#f1dfda;fill-opacity:1;" d="M 188.488281 270.125 L 211.65625 270.125 L 211.65625 267.945312 L 188.488281 267.945312 Z M 188.488281 270.125 "/><path style=" stroke:none;fill-rule:nonzero;fill:#f1dfda;fill-opacity:1;" d="M 188.488281 280.074219 L 211.65625 280.074219 L 211.65625 277.890625 L 188.488281 277.890625 Z M 188.488281 280.074219 "/><g clip-rule="nonzero" clip-path="url(#b6211f4fb8)"><path style=" stroke:none;fill-rule:nonzero;fill:#244b93;fill-opacity:1;" d="M 193.90625 156.585938 C 192.753906 153.140625 191.410156 149.757812 189.914062 146.417969 C 201.976562 141.164062 213.140625 133.683594 222.644531 124.441406 L 243.945312 145.453125 C 231.410156 157.34375 214.914062 165.109375 196.652344 166.5625 C 195.886719 163.214844 195.007812 159.890625 193.90625 156.585938 Z M 190.40625 166.835938 C 175.542969 166.835938 161.648438 162.652344 149.832031 155.417969 C 160.332031 155.105469 170.671875 153.304688 180.75 149.960938 C 182.40625 149.398438 184.042969 148.804688 185.667969 148.167969 C 188.386719 154.160156 190.457031 160.410156 191.964844 166.796875 C 191.445312 166.808594 190.929688 166.835938 190.40625 166.835938 Z M 137.457031 146.019531 L 165.0625 118.066406 C 172.695312 125.921875 178.9375 134.667969 183.6875 144.019531 C 170.847656 148.945312 157.058594 151.1875 142.984375 150.691406 C 141.070312 149.21875 139.226562 147.660156 137.457031 146.019531 Z M 128.566406 136.242188 C 127.925781 122.382812 129.960938 108.804688 134.59375 96.085938 C 144.398438 100.746094 153.53125 107.03125 161.738281 114.792969 L 134.125 142.726562 C 132.160156 140.667969 130.300781 138.507812 128.566406 136.242188 Z M 199.011719 27.75 C 196.890625 28.453125 194.785156 29.230469 192.707031 30.074219 C 190.191406 24.226562 188.269531 18.160156 186.882812 11.957031 C 188.050781 11.90625 189.222656 11.867188 190.40625 11.867188 C 204.570312 11.867188 217.855469 15.683594 229.304688 22.308594 C 219.027344 22.664062 208.898438 24.460938 199.011719 27.75 Z M 243.121094 32.46875 L 214.0625 61.875 C 205.972656 53.566406 199.464844 44.242188 194.609375 34.253906 C 207.792969 28.980469 221.976562 26.542969 236.503906 27.007812 C 238.8125 28.707031 241.019531 30.53125 243.121094 32.46875 Z M 251.183594 41.125 C 251.910156 55.878906 249.609375 70.335938 244.359375 83.777344 C 234.632812 79.113281 225.550781 72.863281 217.386719 65.160156 L 246.457031 35.746094 C 248.113281 37.464844 249.691406 39.257812 251.183594 41.125 Z M 248.558594 85.660156 C 249.414062 83.445312 250.226562 81.203125 250.945312 78.941406 C 254.183594 68.785156 255.855469 58.398438 256.023438 47.878906 C 263.6875 59.878906 268.148438 74.101562 268.148438 89.351562 C 268.148438 90.148438 268.113281 90.9375 268.089844 91.726562 C 261.386719 90.347656 254.84375 88.347656 248.558594 85.660156 Z M 193.597656 89.214844 L 214.089844 68.480469 C 222.519531 76.449219 232.199219 83.058594 242.59375 88.011719 C 237.800781 98.800781 231.105469 108.871094 222.617188 117.832031 Z M 190.300781 92.550781 L 219.320312 121.152344 C 209.988281 130.226562 199.375 137.300781 187.945312 142.273438 C 182.886719 132.203125 176.273438 122.882812 168.355469 114.746094 Z M 157.148438 59.863281 L 186.980469 89.261719 L 165.03125 111.457031 C 156.527344 103.429688 146.785156 96.773438 136.277344 91.800781 C 141.117188 80.21875 148.109375 69.402344 157.148438 59.863281 Z M 190.382812 36.058594 C 195.53125 46.738281 202.429688 56.621094 210.75 65.191406 L 190.257812 85.941406 L 160.445312 56.542969 C 169.402344 47.859375 179.515625 40.984375 190.382812 36.058594 Z M 185.214844 23.359375 C 186.183594 26.238281 187.273438 29.09375 188.476562 31.882812 C 176.945312 37.117188 166.28125 44.367188 157.117188 53.269531 L 136.84375 33.269531 C 148.945312 21.785156 164.730469 14.125 182.242188 12.296875 C 183.046875 16.007812 183.996094 19.699219 185.214844 23.359375 Z M 122.808594 86.5 C 119.515625 85.453125 116.207031 84.613281 112.875 83.890625 C 114.152344 65.679688 121.765625 49.1875 133.539062 36.59375 L 153.824219 56.585938 C 144.613281 66.316406 137.214844 77.664062 132.082031 89.914062 C 129.035156 88.636719 125.933594 87.484375 122.808594 86.5 Z M 112.660156 89.351562 C 112.660156 89.09375 112.679688 88.835938 112.679688 88.574219 C 118.746094 89.925781 124.671875 91.78125 130.414062 94.203125 C 129.847656 95.714844 129.316406 97.226562 128.820312 98.769531 C 125.648438 108.710938 123.972656 118.890625 123.753906 129.191406 C 116.714844 117.542969 112.660156 103.914062 112.660156 89.351562 Z M 225.953125 121.121094 C 234.617188 111.957031 241.6875 101.339844 246.761719 89.898438 C 249.898438 91.226562 253.097656 92.425781 256.328125 93.453125 C 260.128906 94.667969 263.957031 95.621094 267.8125 96.398438 C 266.214844 113.992188 258.695312 129.898438 247.253906 142.128906 Z M 214.753906 169.433594 C 244.269531 160.523438 266.902344 135.859375 272.808594 105.25 C 272.808594 105.246094 272.808594 105.246094 272.808594 105.246094 C 273.035156 104.074219 273.246094 102.90625 273.421875 101.722656 C 277.285156 76.671875 269.792969 50.3125 250.945312 31.042969 L 249.398438 29.386719 L 247.871094 27.84375 C 243.644531 24.117188 239.019531 20.804688 234.140625 17.929688 C 227.691406 14 220.664062 10.929688 213.226562 8.839844 C 212.820312 8.71875 212.414062 8.609375 212.011719 8.496094 C 211.6875 8.410156 211.367188 8.320312 211.039062 8.238281 C 203.964844 6.347656 196.792969 5.351562 189.851562 5.398438 C 168.292969 5.523438 146.816406 13.925781 130.539062 30.386719 C 98.316406 62.980469 98.039062 115.167969 129.628906 147.449219 L 131.160156 149.085938 L 132.703125 150.644531 C 136.132812 153.671875 139.835938 156.417969 143.71875 158.886719 C 154.082031 165.816406 166.082031 170.484375 179.019531 172.234375 C 179.796875 172.351562 180.570312 172.4375 181.351562 172.527344 C 181.53125 172.546875 181.707031 172.578125 181.886719 172.59375 C 184.851562 172.925781 187.800781 173.109375 190.707031 173.089844 C 197.558594 173.046875 204.394531 172.164062 211.058594 170.460938 C 212.027344 170.214844 212.984375 169.941406 213.941406 169.664062 C 214.210938 169.582031 214.484375 169.515625 214.753906 169.433594 "/></g><path style=" stroke:none;fill-rule:nonzero;fill:#f25d19;fill-opacity:1;" d="M 244.574219 110.582031 L 201.1875 104.929688 L 208.359375 116.398438 C 140.722656 165.726562 103.03125 107.429688 103.03125 107.429688 C 127.347656 187.578125 202.347656 150.753906 222.296875 138.679688 L 230.628906 152 L 244.574219 110.582031 "/></g></svg>