<svg xmlns="http://www.w3.org/2000/svg" xmlns:xlink="http://www.w3.org/1999/xlink" width="500" zoomAndPan="magnify" viewBox="0 0 375.12 383.03998" height="500" preserveAspectRatio="xMidYMid meet" version="1.2"><defs><clipPath id="210b96b2c2"><path d="M 0.03125 3.273438 L 374.09375 3.273438 L 374.09375 370.601562 L 0.03125 370.601562 Z M 0.03125 3.273438 "/></clipPath></defs><g id="592a6b6c95"><path style=" stroke:none;fill-rule:evenodd;fill:#2f5274;fill-opacity:1;" d="M 218.25 292.425781 C 227.878906 289.902344 236.992188 286.085938 245.382812 281.1875 C 247.410156 280.007812 249.699219 279.949219 251.792969 281 L 267.582031 289.058594 C 270.207031 290.378906 273.269531 289.902344 275.351562 287.820312 L 291.371094 271.8125 C 293.457031 269.726562 293.929688 266.667969 292.609375 264.042969 L 284.554688 248.261719 C 283.496094 246.175781 283.5625 243.882812 284.742188 241.855469 C 289.640625 233.46875 293.460938 224.359375 295.984375 214.734375 C 296.582031 212.484375 298.171875 210.808594 300.386719 210.085938 L 317.230469 204.613281 C 320.042969 203.703125 321.859375 201.203125 321.859375 198.253906 L 321.859375 175.613281 C 321.859375 172.664062 320.042969 170.164062 317.230469 169.253906 L 300.386719 163.78125 C 298.15625 163.058594 296.582031 161.382812 295.984375 159.132812 C 293.460938 149.507812 289.640625 140.398438 284.742188 132.011719 C 283.5625 129.984375 283.503906 127.699219 284.554688 125.605469 L 292.609375 109.824219 C 293.929688 107.199219 293.457031 104.140625 291.371094 102.078125 L 275.351562 86.046875 C 273.269531 83.964844 270.207031 83.484375 267.582031 84.832031 L 251.792969 92.867188 C 249.707031 93.925781 247.410156 93.859375 245.382812 92.679688 C 236.992188 87.78125 227.878906 83.964844 218.25 81.441406 C 215.996094 80.84375 214.320312 79.273438 213.597656 77.042969 L 208.121094 60.210938 C 207.210938 57.398438 204.710938 55.582031 201.78125 55.582031 L 179.109375 55.582031 C 176.15625 55.582031 173.65625 57.398438 172.742188 60.210938 L 167.269531 77.042969 C 166.546875 79.273438 164.890625 80.84375 162.617188 81.441406 C 152.988281 83.964844 143.875 87.78125 135.484375 92.679688 C 133.457031 93.859375 131.167969 93.917969 129.074219 92.867188 L 113.285156 84.832031 C 110.660156 83.492188 107.597656 83.964844 105.535156 86.046875 L 89.496094 102.078125 C 87.410156 104.140625 86.9375 107.199219 88.277344 109.824219 L 96.320312 125.605469 C 97.390625 127.691406 97.3125 129.984375 96.128906 132.011719 C 91.230469 140.398438 87.433594 149.507812 84.886719 159.132812 C 84.289062 161.382812 82.714844 163.058594 80.484375 163.78125 L 63.644531 169.253906 C 60.839844 170.164062 59.015625 172.664062 59.015625 175.613281 L 59.015625 198.253906 C 59.015625 201.203125 60.832031 203.703125 63.644531 204.613281 L 80.484375 210.085938 C 82.714844 210.808594 84.289062 212.484375 84.886719 214.734375 C 87.410156 224.359375 91.230469 233.46875 96.128906 241.855469 C 97.3125 243.882812 97.371094 246.167969 96.320312 248.261719 L 88.277344 264.042969 C 86.9375 266.667969 87.410156 269.726562 89.496094 271.8125 L 105.535156 287.820312 C 107.597656 289.902344 110.660156 290.378906 113.285156 289.058594 L 129.074219 281 C 131.160156 279.941406 133.457031 280.007812 135.484375 281.1875 C 143.875 286.085938 152.988281 289.902344 162.617188 292.425781 C 164.890625 293.023438 166.546875 294.597656 167.269531 296.824219 L 172.742188 313.65625 C 173.65625 316.464844 176.15625 318.285156 179.109375 318.285156 L 201.78125 318.285156 C 204.71875 318.285156 207.21875 316.46875 208.121094 313.65625 L 213.597656 296.824219 C 214.320312 294.589844 215.996094 293.023438 218.25 292.425781 Z M 218.25 292.425781 "/><path style=" stroke:none;fill-rule:evenodd;fill:#edf6ff;fill-opacity:1;" d="M 190.429688 256.582031 C 228.828125 256.582031 260.132812 225.292969 260.132812 186.9375 C 260.132812 148.582031 228.828125 117.292969 190.429688 117.292969 C 152.054688 117.292969 120.75 148.582031 120.75 186.9375 C 120.75 225.292969 152.0625 256.582031 190.429688 256.582031 Z M 190.429688 256.582031 "/><path style=" stroke:none;fill-rule:nonzero;fill:#0593fc;fill-opacity:1;" d="M 152.222656 192.757812 C 149.019531 192.757812 146.394531 190.160156 146.394531 186.9375 C 146.394531 183.71875 149.019531 181.117188 152.222656 181.117188 L 184.605469 181.117188 L 184.605469 148.75 C 184.605469 145.550781 187.207031 142.925781 190.429688 142.925781 C 193.652344 142.925781 196.253906 145.550781 196.253906 148.75 L 196.253906 186.9375 C 196.253906 190.160156 193.652344 192.757812 190.429688 192.757812 Z M 152.222656 192.757812 "/><g clip-rule="nonzero" clip-path="url(#210b96b2c2)"><path style=" stroke:none;fill-rule:nonzero;fill:#70da40;fill-opacity:1;" d="M 21.332031 115.304688 C 34.769531 83.636719 56.859375 56.523438 84.632812 36.902344 C 114.558594 15.792969 151.054688 3.375 190.4375 3.375 C 241.148438 3.375 287.070312 23.921875 320.296875 57.144531 C 353.527344 90.363281 374.085938 136.253906 374.085938 186.9375 C 374.085938 237.621094 353.527344 283.519531 320.289062 316.734375 C 287.0625 349.945312 241.140625 370.5 190.429688 370.5 C 139.71875 370.5 93.796875 349.953125 60.566406 316.734375 C 27.339844 283.519531 6.78125 237.621094 6.78125 186.9375 C 6.78125 183.71875 9.40625 181.117188 12.628906 181.117188 C 15.828125 181.117188 18.453125 183.71875 18.453125 186.9375 C 18.453125 234.402344 37.691406 277.386719 68.8125 308.492188 C 99.933594 339.597656 142.941406 358.828125 190.429688 358.828125 C 237.917969 358.828125 280.921875 339.597656 312.046875 308.492188 C 343.167969 277.386719 362.429688 234.402344 362.429688 186.9375 C 362.429688 139.472656 343.167969 96.488281 312.046875 65.382812 C 280.921875 34.277344 237.917969 15.046875 190.429688 15.046875 C 153.519531 15.046875 119.34375 26.65625 91.320312 46.425781 C 65.308594 64.808594 44.617188 90.207031 32.035156 119.894531 L 53.875 110.347656 C 56.8125 109.066406 60.238281 110.40625 61.523438 113.367188 C 62.828125 116.300781 61.464844 119.726562 58.527344 121.007812 L 24.035156 136.0625 C 21.085938 137.34375 17.652344 135.984375 16.367188 133.046875 L 1.328125 98.574219 C 0.0429688 95.621094 1.386719 92.210938 4.324219 90.910156 C 7.277344 89.625 10.710938 90.988281 11.992188 93.925781 Z M 21.332031 115.304688 "/></g><path style=" stroke:none;fill-rule:evenodd;fill:#70da40;fill-opacity:1;" d="M 292.929688 321.011719 C 328.578125 321.011719 357.652344 291.953125 357.652344 256.320312 C 357.652344 220.6875 328.578125 191.628906 292.929688 191.628906 C 257.28125 191.628906 228.207031 220.6875 228.207031 256.320312 C 228.207031 291.945312 257.289062 321.011719 292.929688 321.011719 Z M 292.929688 321.011719 "/><path style=" stroke:none;fill-rule:nonzero;fill:#edf6ff;fill-opacity:1;" d="M 317.957031 227.792969 C 322.273438 223.480469 329.28125 223.480469 333.625 227.792969 C 337.941406 232.128906 337.941406 239.132812 333.625 243.453125 L 292.230469 284.824219 C 287.894531 289.160156 280.886719 289.160156 276.5625 284.824219 L 252.242188 260.53125 C 247.925781 256.21875 247.925781 249.195312 252.242188 244.871094 C 256.582031 240.558594 263.585938 240.558594 267.910156 244.871094 L 284.402344 261.355469 Z M 317.957031 227.792969 "/><path style=" stroke:none;fill-rule:evenodd;fill:#d5dde6;fill-opacity:1;" d="M 137.179688 186.9375 C 137.179688 151.25 164.046875 121.832031 198.660156 117.765625 C 195.957031 117.453125 193.222656 117.292969 190.4375 117.292969 C 151.957031 117.292969 120.757812 148.480469 120.757812 186.9375 C 120.757812 225.417969 151.957031 256.582031 190.4375 256.582031 C 193.230469 256.582031 195.957031 256.4375 198.660156 256.109375 C 164.046875 252.042969 137.179688 222.628906 137.179688 186.9375 Z M 137.179688 186.9375 "/><path style=" stroke:none;fill-rule:evenodd;fill:#65c43a;fill-opacity:1;" d="M 240.835938 256.320312 C 240.835938 244.261719 244.144531 232.960938 249.886719 223.289062 C 250.054688 223.042969 250.203125 222.773438 250.363281 222.523438 C 260.691406 205.691406 278.546875 193.941406 299.234375 191.9375 C 297.171875 191.730469 295.058594 191.621094 292.929688 191.621094 C 280.324219 191.621094 268.542969 195.238281 258.609375 201.453125 C 243.457031 210.953125 232.507812 226.546875 229.242188 244.808594 C 228.558594 248.546875 228.207031 252.386719 228.207031 256.3125 C 228.207031 267.117188 230.875 277.320312 235.5625 286.261719 C 246.375 306.917969 268.003906 321.003906 292.929688 321.003906 C 294.765625 321.003906 296.589844 320.921875 298.367188 320.777344 C 298.660156 320.753906 298.945312 320.710938 299.234375 320.695312 C 299.011719 320.675781 298.785156 320.652344 298.550781 320.636719 C 274.601562 318.058594 254.578125 302.421875 245.710938 281 C 242.570312 273.398438 240.835938 265.058594 240.835938 256.320312 Z M 240.835938 256.320312 "/></g></svg>