<svg xmlns="http://www.w3.org/2000/svg" xmlns:xlink="http://www.w3.org/1999/xlink" width="500" zoomAndPan="magnify" viewBox="0 0 375.12 383.03998" height="500" preserveAspectRatio="xMidYMid meet" version="1.2"><defs><clipPath id="9b081ec9c0"><path d="M 0.03125 0 L 374.09375 0 L 374.09375 374.0625 L 0.03125 374.0625 Z M 0.03125 0 "/></clipPath></defs><g id="67bf4ccb9d"><path style=" stroke:none;fill-rule:evenodd;fill:#ffd54f;fill-opacity:1;" d="M 299.890625 43.136719 L 330.957031 74.203125 C 335.078125 78.324219 335.078125 85.070312 330.957031 89.191406 L 326 94.148438 C 315.679688 104.46875 312.753906 119.167969 318.339844 132.652344 C 323.925781 146.136719 336.386719 154.464844 350.984375 154.464844 L 357.992188 154.464844 C 363.824219 154.464844 368.59375 159.234375 368.59375 165.0625 L 368.59375 209 C 368.59375 214.828125 363.824219 219.597656 357.992188 219.597656 L 350.984375 219.597656 C 336.386719 219.597656 323.925781 227.925781 318.339844 241.410156 C 312.753906 254.894531 315.679688 269.59375 326 279.914062 L 330.957031 284.867188 C 335.078125 288.992188 335.078125 295.734375 330.957031 299.859375 L 299.890625 330.925781 C 295.765625 335.046875 289.019531 335.046875 284.898438 330.925781 L 279.941406 325.96875 C 269.621094 315.648438 254.921875 312.722656 241.4375 318.308594 C 227.953125 323.894531 219.628906 336.355469 219.628906 350.953125 L 219.628906 357.960938 C 219.628906 363.792969 214.859375 368.5625 209.027344 368.5625 L 165.09375 368.5625 C 159.261719 368.5625 154.492188 363.792969 154.492188 357.960938 L 154.492188 350.953125 C 154.492188 336.355469 146.167969 323.894531 132.683594 318.308594 C 119.199219 312.722656 104.5 315.648438 94.179688 325.96875 L 89.222656 330.925781 C 85.101562 335.046875 78.355469 335.046875 74.234375 330.925781 L 43.167969 299.859375 C 39.042969 295.738281 39.042969 288.992188 43.167969 284.867188 L 48.125 279.914062 C 58.441406 269.59375 61.367188 254.894531 55.78125 241.410156 C 50.195312 227.925781 37.734375 219.597656 23.140625 219.597656 L 16.128906 219.597656 C 10.300781 219.597656 5.53125 214.828125 5.53125 209 L 5.53125 165.0625 C 5.53125 159.234375 10.300781 154.464844 16.128906 154.464844 L 23.140625 154.464844 C 37.734375 154.464844 50.195312 146.140625 55.78125 132.652344 C 61.367188 119.171875 58.441406 104.46875 48.121094 94.148438 L 43.164062 89.195312 C 39.042969 85.070312 39.042969 78.328125 43.164062 74.203125 L 74.234375 43.136719 C 78.355469 39.015625 85.101562 39.015625 89.222656 43.136719 L 94.179688 48.09375 C 104.5 58.414062 119.199219 61.339844 132.683594 55.753906 C 146.167969 50.167969 154.496094 37.707031 154.496094 23.109375 L 154.496094 16.101562 C 154.496094 10.273438 159.265625 5.503906 165.09375 5.503906 L 209.027344 5.503906 C 214.859375 5.503906 219.628906 10.273438 219.628906 16.101562 L 219.628906 23.109375 C 219.628906 37.707031 227.953125 50.167969 241.4375 55.753906 C 254.921875 61.339844 269.621094 58.414062 279.941406 48.09375 L 284.898438 43.136719 C 289.023438 39.015625 295.765625 39.015625 299.890625 43.136719 Z M 299.890625 43.136719 "/><path style=" stroke:none;fill-rule:nonzero;fill:#43a2ff;fill-opacity:1;" d="M 261.019531 187.03125 C 261.019531 188.242188 260.988281 189.453125 260.929688 190.660156 C 260.871094 191.867188 260.78125 193.074219 260.660156 194.28125 C 260.542969 195.484375 260.394531 196.6875 260.21875 197.882812 C 260.039062 199.082031 259.832031 200.273438 259.597656 201.460938 C 259.359375 202.648438 259.09375 203.828125 258.800781 205 C 258.507812 206.175781 258.183594 207.339844 257.832031 208.5 C 257.480469 209.65625 257.101562 210.808594 256.695312 211.945312 C 256.285156 213.085938 255.851562 214.214844 255.386719 215.332031 C 254.925781 216.453125 254.433594 217.558594 253.917969 218.652344 C 253.398438 219.746094 252.855469 220.828125 252.285156 221.894531 C 251.714844 222.960938 251.117188 224.015625 250.496094 225.050781 C 249.875 226.089844 249.226562 227.113281 248.554688 228.121094 C 247.882812 229.125 247.183594 230.113281 246.464844 231.085938 C 245.742188 232.058594 245 233.011719 244.230469 233.949219 C 243.460938 234.882812 242.671875 235.800781 241.859375 236.699219 C 241.046875 237.59375 240.210938 238.46875 239.355469 239.328125 C 238.5 240.183594 237.625 241.015625 236.726562 241.828125 C 235.832031 242.640625 234.914062 243.433594 233.980469 244.199219 C 233.042969 244.96875 232.089844 245.710938 231.117188 246.433594 C 230.144531 247.15625 229.15625 247.851562 228.148438 248.523438 C 227.144531 249.195312 226.121094 249.84375 225.082031 250.464844 C 224.042969 251.089844 222.992188 251.683594 221.925781 252.253906 C 220.855469 252.824219 219.777344 253.371094 218.683594 253.886719 C 217.585938 254.40625 216.480469 254.894531 215.363281 255.359375 C 214.246094 255.820312 213.117188 256.257812 211.976562 256.664062 C 210.835938 257.074219 209.6875 257.453125 208.53125 257.804688 C 207.371094 258.15625 206.207031 258.476562 205.03125 258.769531 C 203.855469 259.066406 202.675781 259.332031 201.488281 259.566406 C 200.300781 259.804688 199.109375 260.007812 197.914062 260.1875 C 196.714844 260.363281 195.515625 260.511719 194.308594 260.632812 C 193.105469 260.75 191.898438 260.839844 190.691406 260.898438 C 189.480469 260.957031 188.273438 260.988281 187.0625 260.988281 C 185.851562 260.988281 184.640625 260.957031 183.433594 260.898438 C 182.222656 260.839844 181.015625 260.75 179.8125 260.632812 C 178.609375 260.511719 177.40625 260.363281 176.210938 260.1875 C 175.011719 260.007812 173.820312 259.804688 172.632812 259.566406 C 171.445312 259.332031 170.265625 259.066406 169.089844 258.769531 C 167.917969 258.476562 166.75 258.15625 165.59375 257.804688 C 164.433594 257.453125 163.285156 257.074219 162.144531 256.664062 C 161.007812 256.257812 159.878906 255.820312 158.757812 255.359375 C 157.640625 254.894531 156.535156 254.40625 155.441406 253.886719 C 154.347656 253.371094 153.265625 252.824219 152.199219 252.253906 C 151.132812 251.683594 150.078125 251.089844 149.039062 250.464844 C 148 249.84375 146.980469 249.195312 145.972656 248.523438 C 144.96875 247.851562 143.976562 247.15625 143.003906 246.433594 C 142.03125 245.710938 141.078125 244.96875 140.144531 244.199219 C 139.207031 243.433594 138.292969 242.640625 137.394531 241.828125 C 136.5 241.015625 135.621094 240.183594 134.765625 239.328125 C 133.910156 238.46875 133.074219 237.59375 132.261719 236.699219 C 131.449219 235.800781 130.660156 234.882812 129.890625 233.949219 C 129.125 233.011719 128.378906 232.058594 127.660156 231.085938 C 126.9375 230.113281 126.242188 229.125 125.570312 228.121094 C 124.894531 227.113281 124.25 226.089844 123.625 225.050781 C 123.003906 224.015625 122.40625 222.960938 121.835938 221.894531 C 121.265625 220.828125 120.722656 219.746094 120.207031 218.652344 C 119.6875 217.558594 119.199219 216.453125 118.734375 215.332031 C 118.269531 214.214844 117.835938 213.085938 117.429688 211.945312 C 117.019531 210.808594 116.640625 209.65625 116.289062 208.5 C 115.9375 207.339844 115.613281 206.175781 115.320312 205 C 115.027344 203.828125 114.761719 202.648438 114.527344 201.460938 C 114.289062 200.273438 114.082031 199.082031 113.90625 197.882812 C 113.726562 196.6875 113.578125 195.484375 113.460938 194.28125 C 113.34375 193.074219 113.253906 191.867188 113.195312 190.660156 C 113.132812 189.453125 113.105469 188.242188 113.105469 187.03125 C 113.105469 185.820312 113.132812 184.609375 113.195312 183.402344 C 113.253906 182.195312 113.34375 180.988281 113.460938 179.78125 C 113.578125 178.578125 113.726562 177.375 113.90625 176.179688 C 114.082031 174.980469 114.289062 173.789062 114.527344 172.601562 C 114.761719 171.414062 115.027344 170.234375 115.320312 169.0625 C 115.613281 167.886719 115.9375 166.722656 116.289062 165.5625 C 116.640625 164.40625 117.019531 163.253906 117.429688 162.117188 C 117.835938 160.976562 118.269531 159.847656 118.734375 158.730469 C 119.199219 157.609375 119.6875 156.503906 120.207031 155.410156 C 120.722656 154.316406 121.265625 153.234375 121.835938 152.167969 C 122.40625 151.101562 123.003906 150.046875 123.625 149.011719 C 124.25 147.972656 124.894531 146.949219 125.570312 145.941406 C 126.242188 144.9375 126.9375 143.949219 127.660156 142.976562 C 128.378906 142.003906 129.125 141.050781 129.890625 140.113281 C 130.660156 139.179688 131.449219 138.261719 132.261719 137.363281 C 133.074219 136.46875 133.910156 135.59375 134.765625 134.734375 C 135.621094 133.878906 136.5 133.046875 137.394531 132.234375 C 138.292969 131.421875 139.207031 130.628906 140.144531 129.863281 C 141.078125 129.09375 142.03125 128.351562 143.003906 127.628906 C 143.976562 126.90625 144.96875 126.210938 145.972656 125.539062 C 146.980469 124.867188 148 124.21875 149.039062 123.597656 C 150.078125 122.972656 151.132812 122.378906 152.199219 121.808594 C 153.265625 121.238281 154.347656 120.691406 155.441406 120.175781 C 156.535156 119.65625 157.640625 119.167969 158.757812 118.703125 C 159.878906 118.242188 161.007812 117.804688 162.144531 117.398438 C 163.285156 116.988281 164.433594 116.609375 165.59375 116.257812 C 166.75 115.90625 167.917969 115.585938 169.089844 115.292969 C 170.265625 114.996094 171.445312 114.730469 172.632812 114.496094 C 173.820312 114.257812 175.011719 114.054688 176.210938 113.875 C 177.40625 113.699219 178.609375 113.550781 179.8125 113.429688 C 181.015625 113.3125 182.222656 113.222656 183.433594 113.164062 C 184.640625 113.105469 185.851562 113.074219 187.0625 113.074219 C 188.273438 113.074219 189.480469 113.105469 190.691406 113.164062 C 191.898438 113.222656 193.105469 113.3125 194.308594 113.429688 C 195.515625 113.550781 196.714844 113.699219 197.914062 113.875 C 199.109375 114.054688 200.300781 114.257812 201.488281 114.496094 C 202.675781 114.730469 203.855469 114.996094 205.03125 115.292969 C 206.207031 115.585938 207.371094 115.90625 208.53125 116.257812 C 209.6875 116.609375 210.835938 116.988281 211.976562 117.398438 C 213.117188 117.804688 214.246094 118.242188 215.363281 118.703125 C 216.480469 119.167969 217.585938 119.65625 218.683594 120.175781 C 219.777344 120.691406 220.855469 121.238281 221.925781 121.808594 C 222.992188 122.378906 224.042969 122.972656 225.082031 123.597656 C 226.121094 124.21875 227.144531 124.867188 228.148438 125.539062 C 229.15625 126.210938 230.144531 126.90625 231.117188 127.628906 C 232.089844 128.351562 233.042969 129.09375 233.980469 129.863281 C 234.914062 130.628906 235.832031 131.421875 236.726562 132.234375 C 237.625 133.046875 238.5 133.878906 239.355469 134.734375 C 240.210938 135.59375 241.046875 136.46875 241.859375 137.363281 C 242.671875 138.261719 243.460938 139.179688 244.230469 140.113281 C 245 141.050781 245.742188 142.003906 246.464844 142.976562 C 247.183594 143.949219 247.882812 144.9375 248.554688 145.941406 C 249.226562 146.949219 249.875 147.972656 250.496094 149.011719 C 251.117188 150.046875 251.714844 151.101562 252.285156 152.167969 C 252.855469 153.234375 253.398438 154.316406 253.917969 155.410156 C 254.433594 156.503906 254.925781 157.609375 255.386719 158.730469 C 255.851562 159.847656 256.285156 160.976562 256.695312 162.117188 C 257.101562 163.253906 257.480469 164.40625 257.832031 165.5625 C 258.183594 166.722656 258.507812 167.886719 258.800781 169.0625 C 259.09375 170.234375 259.359375 171.414062 259.597656 172.601562 C 259.832031 173.789062 260.039062 174.980469 260.21875 176.179688 C 260.394531 177.375 260.542969 178.578125 260.660156 179.78125 C 260.78125 180.988281 260.871094 182.195312 260.929688 183.402344 C 260.988281 184.609375 261.019531 185.820312 261.019531 187.03125 Z M 261.019531 187.03125 "/><path style=" stroke:none;fill-rule:evenodd;fill:#f0f0f0;fill-opacity:1;" d="M 148.867188 192.148438 C 145.074219 187.929688 145.414062 181.433594 149.632812 177.636719 C 153.851562 173.84375 160.347656 174.183594 164.140625 178.402344 L 178.378906 194.253906 L 209.832031 157.5625 C 213.515625 153.253906 219.992188 152.75 224.300781 156.4375 C 228.605469 160.121094 229.109375 166.597656 225.425781 170.90625 L 186.683594 216.105469 C 182.78125 221.140625 175.214844 221.476562 170.914062 216.699219 Z M 148.867188 192.148438 "/><g clip-rule="nonzero" clip-path="url(#9b081ec9c0)"><path style=" stroke:none;fill-rule:evenodd;fill:#000000;fill-opacity:1;" d="M 182.34375 212.738281 C 181.472656 213.859375 180.148438 214.539062 178.726562 214.585938 C 177.882812 214.617188 176.300781 214.457031 175.015625 213.027344 L 152.964844 188.476562 C 152.964844 188.472656 152.964844 188.46875 152.964844 188.46875 C 152.109375 187.519531 151.675781 186.300781 151.742188 185.027344 C 151.8125 183.753906 152.375 182.582031 153.320312 181.730469 C 154.199219 180.933594 155.328125 180.503906 156.503906 180.503906 C 156.589844 180.503906 156.679688 180.503906 156.765625 180.507812 C 158.035156 180.578125 159.210938 181.136719 160.054688 182.078125 L 174.289062 197.933594 C 175.351562 199.109375 176.847656 199.777344 178.445312 199.757812 C 180.03125 199.738281 181.527344 199.039062 182.5625 197.835938 L 214.023438 161.140625 C 215.722656 159.144531 218.738281 158.910156 220.730469 160.617188 C 222.726562 162.324219 222.960938 165.335938 221.261719 167.328125 L 182.511719 212.527344 C 182.453125 212.589844 182.394531 212.667969 182.34375 212.738281 Z M 190.945312 219.59375 L 229.613281 174.484375 C 235.261719 167.878906 234.492188 157.910156 227.882812 152.257812 C 221.28125 146.605469 211.308594 147.382812 205.660156 153.984375 L 178.285156 185.914062 L 168.238281 174.722656 C 162.425781 168.257812 152.425781 167.734375 145.964844 173.550781 C 142.824219 176.367188 140.984375 180.238281 140.753906 184.449219 C 140.539062 188.65625 141.964844 192.695312 144.789062 195.828125 L 166.832031 220.378906 C 169.832031 223.710938 174.066406 225.589844 178.542969 225.589844 C 178.734375 225.589844 178.929688 225.589844 179.132812 225.582031 C 183.78125 225.40625 188.078125 223.226562 190.945312 219.59375 Z M 118.613281 187.03125 C 118.613281 224.773438 149.324219 255.484375 187.066406 255.484375 C 224.820312 255.484375 255.527344 224.773438 255.527344 187.03125 C 255.527344 149.285156 224.820312 118.578125 187.066406 118.578125 C 149.324219 118.578125 118.613281 149.285156 118.613281 187.03125 Z M 266.527344 187.03125 C 266.527344 143.21875 230.882812 107.578125 187.070312 107.578125 C 143.257812 107.578125 107.613281 143.21875 107.613281 187.03125 C 107.613281 230.847656 143.257812 266.488281 187.070312 266.488281 C 230.882812 266.484375 266.527344 230.847656 266.527344 187.03125 Z M 279.339844 254.621094 C 268.933594 268.804688 255.199219 280.570312 239.609375 288.644531 C 223.503906 296.992188 205.328125 301.40625 187.066406 301.40625 C 174.8125 301.40625 162.863281 299.503906 151.414062 295.738281 L 153.0625 299.757812 C 154.214844 302.574219 152.875 305.785156 150.0625 306.9375 C 149.382812 307.214844 148.671875 307.347656 147.980469 307.347656 C 145.808594 307.347656 143.765625 306.0625 142.890625 303.9375 L 136.339844 287.992188 C 135.792969 286.644531 135.796875 285.132812 136.355469 283.78125 C 136.917969 282.441406 137.992188 281.367188 139.339844 280.816406 L 155.289062 274.277344 C 158.097656 273.117188 161.308594 274.460938 162.464844 277.273438 C 163.617188 280.085938 162.277344 283.296875 159.46875 284.449219 L 156.304688 285.746094 C 166.210938 288.835938 176.507812 290.402344 187.070312 290.402344 C 219.867188 290.402344 251.039062 274.589844 270.46875 248.105469 C 272.265625 245.65625 275.710938 245.128906 278.160156 246.921875 C 280.613281 248.722656 281.140625 252.171875 279.339844 254.621094 Z M 94.796875 119.453125 C 105.207031 105.261719 118.945312 93.496094 134.527344 85.417969 C 150.636719 77.074219 168.800781 72.660156 187.066406 72.660156 C 199.332031 72.660156 211.269531 74.5625 222.71875 78.320312 L 221.070312 74.304688 C 219.917969 71.492188 221.257812 68.277344 224.066406 67.125 C 226.875 65.972656 230.097656 67.316406 231.25 70.125 L 237.789062 86.070312 C 238.941406 88.878906 237.601562 92.09375 234.792969 93.246094 L 218.84375 99.792969 C 218.167969 100.074219 217.460938 100.203125 216.761719 100.203125 C 214.597656 100.203125 212.542969 98.917969 211.671875 96.789062 C 210.523438 93.980469 211.863281 90.765625 214.671875 89.613281 L 217.828125 88.3125 C 207.933594 85.226562 197.628906 83.660156 187.066406 83.660156 C 154.273438 83.660156 123.09375 99.46875 103.664062 125.957031 C 102.59375 127.429688 100.921875 128.207031 99.226562 128.207031 C 98.097656 128.207031 96.960938 127.859375 95.976562 127.140625 C 93.527344 125.34375 93.003906 121.902344 94.796875 119.453125 Z M 127.179688 278.121094 C 126.101562 279.59375 124.429688 280.371094 122.734375 280.371094 C 121.605469 280.371094 120.46875 280.019531 119.484375 279.300781 C 105.300781 268.890625 93.535156 255.152344 85.460938 239.574219 C 77.109375 223.460938 72.695312 205.292969 72.695312 187.027344 C 72.695312 174.773438 74.601562 162.824219 78.367188 151.378906 L 74.339844 153.027344 C 71.53125 154.179688 68.320312 152.835938 67.160156 150.027344 C 66.011719 147.214844 67.351562 144.007812 70.160156 142.851562 L 86.109375 136.304688 C 87.453125 135.75 88.964844 135.753906 90.316406 136.320312 C 91.667969 136.882812 92.730469 137.953125 93.285156 139.308594 L 99.828125 155.246094 C 100.980469 158.058594 99.636719 161.269531 96.828125 162.425781 C 96.148438 162.707031 95.433594 162.835938 94.738281 162.835938 C 92.574219 162.835938 90.523438 161.554688 89.648438 159.425781 L 88.355469 156.273438 C 85.273438 166.171875 83.699219 176.46875 83.699219 187.027344 C 83.699219 219.824219 99.511719 251 126 270.433594 C 128.445312 272.230469 128.976562 275.671875 127.179688 278.121094 Z M 306.972656 224.035156 C 308.125 226.84375 306.78125 230.054688 303.972656 231.214844 L 288.027344 237.757812 C 287.359375 238.027344 286.648438 238.167969 285.945312 238.167969 C 285.21875 238.167969 284.5 238.027344 283.816406 237.742188 C 282.476562 237.179688 281.402344 236.105469 280.851562 234.757812 L 274.3125 218.8125 C 273.152344 216 274.5 212.789062 277.3125 211.636719 C 280.121094 210.480469 283.332031 211.820312 284.484375 214.636719 L 285.78125 217.792969 C 288.871094 207.894531 290.441406 197.59375 290.441406 187.027344 C 290.441406 154.234375 274.625 123.054688 248.148438 103.628906 C 245.699219 101.832031 245.171875 98.386719 246.96875 95.9375 C 248.765625 93.488281 252.203125 92.960938 254.65625 94.757812 C 268.839844 105.167969 280.605469 118.90625 288.683594 134.488281 C 297.027344 150.597656 301.445312 168.765625 301.445312 187.027344 C 301.445312 199.289062 299.535156 211.234375 295.78125 222.683594 L 299.800781 221.03125 C 302.609375 219.882812 305.824219 221.222656 306.972656 224.035156 Z M 363.085938 209 L 363.085938 165.0625 C 363.085938 162.253906 360.804688 159.96875 358 159.96875 L 350.980469 159.96875 C 334.167969 159.96875 319.703125 150.304688 313.265625 134.761719 C 306.824219 119.210938 310.214844 102.160156 322.117188 90.261719 L 327.074219 85.304688 C 329.046875 83.316406 329.046875 80.082031 327.074219 78.09375 L 296.007812 47.027344 C 295.054688 46.074219 293.769531 45.546875 292.398438 45.546875 C 291.035156 45.546875 289.75 46.074219 288.800781 47.027344 L 283.839844 51.984375 C 271.941406 63.882812 254.890625 67.277344 239.339844 60.835938 C 223.792969 54.394531 214.128906 39.941406 214.128906 23.109375 L 214.128906 16.101562 C 214.128906 13.289062 211.851562 11 209.035156 11 L 165.097656 11 C 162.292969 11 160.003906 13.289062 160.003906 16.101562 L 160.003906 23.109375 C 160.003906 39.941406 150.34375 54.394531 134.792969 60.835938 C 119.242188 67.277344 102.199219 63.882812 90.292969 51.984375 L 85.34375 47.027344 C 84.382812 46.074219 83.105469 45.546875 81.738281 45.546875 C 80.363281 45.546875 79.085938 46.074219 78.132812 47.027344 L 47.066406 78.09375 C 46.109375 79.050781 45.585938 80.328125 45.585938 81.699219 C 45.585938 83.066406 46.109375 84.351562 47.066406 85.304688 L 52.023438 90.261719 C 63.921875 102.160156 67.316406 119.210938 60.867188 134.761719 C 54.429688 150.304688 39.980469 159.96875 23.148438 159.96875 L 16.136719 159.96875 C 13.328125 159.96875 11.039062 162.253906 11.039062 165.0625 L 11.039062 209 C 11.039062 211.808594 13.328125 214.09375 16.136719 214.09375 L 23.148438 214.09375 C 39.980469 214.09375 54.429688 223.757812 60.867188 239.304688 C 67.316406 254.855469 63.921875 271.90625 52.023438 283.800781 L 47.066406 288.761719 C 45.078125 290.75 45.078125 293.984375 47.066406 295.972656 L 78.132812 327.035156 C 80.121094 329.027344 83.355469 329.023438 85.34375 327.035156 L 90.296875 322.082031 C 98.210938 314.167969 108.398438 310.019531 118.914062 310.019531 C 124.210938 310.019531 129.585938 311.074219 134.792969 313.230469 C 150.34375 319.667969 160.003906 334.125 160.003906 350.953125 L 160.003906 357.964844 C 160.003906 360.773438 162.292969 363.058594 165.097656 363.058594 L 209.035156 363.058594 C 211.851562 363.058594 214.132812 360.773438 214.132812 357.964844 L 214.132812 350.953125 C 214.132812 334.125 223.792969 319.667969 239.34375 313.230469 C 254.890625 306.789062 271.941406 310.179688 283.839844 322.082031 L 288.800781 327.035156 C 290.785156 329.023438 294.019531 329.023438 296.007812 327.035156 L 327.078125 295.972656 C 329.046875 293.984375 329.046875 290.75 327.078125 288.761719 L 322.117188 283.800781 C 310.214844 271.898438 306.824219 254.855469 313.265625 239.304688 C 319.703125 223.757812 334.167969 214.09375 350.980469 214.09375 L 358.003906 214.09375 C 360.804688 214.09375 363.085938 211.808594 363.085938 209 Z M 358 148.964844 L 350.980469 148.964844 C 338.699219 148.964844 328.148438 141.90625 323.429688 130.550781 C 318.730469 119.191406 321.203125 106.730469 329.914062 98.039062 L 334.859375 93.085938 C 341.121094 86.808594 341.121094 76.589844 334.859375 70.316406 L 303.789062 39.25 C 300.75 36.214844 296.710938 34.542969 292.398438 34.542969 C 288.09375 34.542969 284.050781 36.214844 281.015625 39.25 L 276.066406 44.207031 C 267.363281 52.898438 254.910156 55.375 243.546875 50.671875 C 232.195312 45.96875 225.132812 35.40625 225.132812 23.109375 L 225.132812 16.101562 C 225.132812 7.222656 217.914062 0 209.035156 0 L 165.097656 0 C 156.222656 0 148.996094 7.222656 148.996094 16.101562 L 148.996094 23.109375 C 148.996094 35.40625 141.945312 45.96875 130.582031 50.671875 C 119.226562 55.375 106.765625 52.894531 98.074219 44.207031 L 93.117188 39.25 C 90.089844 36.214844 86.042969 34.542969 81.734375 34.542969 C 77.425781 34.542969 73.378906 36.214844 70.347656 39.25 L 39.285156 70.3125 C 36.253906 73.347656 34.582031 77.390625 34.582031 81.699219 C 34.582031 86.007812 36.253906 90.050781 39.285156 93.082031 L 44.242188 98.039062 C 52.929688 106.734375 55.410156 119.191406 50.710938 130.550781 C 46.003906 141.90625 35.441406 148.964844 23.144531 148.964844 L 16.132812 148.964844 C 7.261719 148.964844 0.0351562 156.1875 0.0351562 165.0625 L 0.0351562 209 C 0.0351562 217.871094 7.261719 225.097656 16.132812 225.097656 L 23.144531 225.097656 C 35.441406 225.097656 46 232.152344 50.710938 243.515625 C 55.410156 254.875 52.929688 267.328125 44.242188 276.019531 L 39.285156 280.980469 C 33.003906 287.257812 33.003906 297.464844 39.285156 303.746094 L 70.351562 334.816406 C 76.628906 341.09375 86.839844 341.09375 93.121094 334.816406 L 98.078125 329.855469 C 106.769531 321.167969 119.226562 318.6875 130.585938 323.394531 C 141.945312 328.097656 149 338.65625 149 350.953125 L 149 357.964844 C 149 366.839844 156.226562 374.0625 165.097656 374.0625 L 209.035156 374.0625 C 217.914062 374.0625 225.136719 366.839844 225.136719 357.964844 L 225.136719 350.953125 C 225.136719 338.65625 232.1875 328.097656 243.550781 323.394531 C 254.914062 318.6875 267.367188 321.167969 276.066406 329.855469 L 281.015625 334.816406 C 287.296875 341.09375 297.511719 341.09375 303.789062 334.816406 L 334.859375 303.746094 C 341.121094 297.472656 341.121094 287.257812 334.859375 280.980469 L 329.914062 276.019531 C 321.203125 267.328125 318.730469 254.875 323.429688 243.515625 C 328.148438 232.152344 338.699219 225.097656 350.980469 225.097656 L 358.003906 225.097656 C 366.859375 225.097656 374.089844 217.875 374.089844 209 L 374.089844 165.0625 C 374.089844 156.1875 366.859375 148.964844 358 148.964844 Z M 358 148.964844 "/></g></g></svg>