<svg width="42" height="46" viewBox="0 0 42 46" fill="none" xmlns="http://www.w3.org/2000/svg">
<path d="M35.6364 17.8889C34.9613 17.8889 34.3138 17.6196 33.8365 17.1404C33.3591 16.6611 33.0909 16.0111 33.0909 15.3333C33.0909 14.6556 33.3591 14.0055 33.8365 13.5263C34.3138 13.047 34.9613 12.7778 35.6364 12.7778C36.3115 12.7778 36.9589 13.047 37.4363 13.5263C37.9136 14.0055 38.1818 14.6556 38.1818 15.3333C38.1818 16.0111 37.9136 16.6611 37.4363 17.1404C36.9589 17.6196 36.3115 17.8889 35.6364 17.8889ZM20.3636 17.8889H5.09091V5.11111H20.3636M40.1418 10.81L40.1673 10.7844L30.6982 1.27778L28 3.98667L33.3709 9.37889C30.9782 10.2222 29.2727 12.5989 29.2727 15.3333C29.2727 16.1723 29.4373 17.0031 29.7571 17.7783C30.0769 18.5534 30.5457 19.2577 31.1366 19.851C32.33 21.0491 33.9486 21.7222 35.6364 21.7222C36.5527 21.7222 37.3927 21.5178 38.1818 21.1856V39.6111C38.1818 40.2889 37.9136 40.9389 37.4363 41.4182C36.9589 41.8974 36.3115 42.1667 35.6364 42.1667C34.9613 42.1667 34.3138 41.8974 33.8365 41.4182C33.3591 40.9389 33.0909 40.2889 33.0909 39.6111V28.1111C33.0909 26.7556 32.5545 25.4555 31.5998 24.497C30.6451 23.5385 29.3502 23 28 23H25.4545V5.11111C25.4545 3.75556 24.9182 2.45553 23.9635 1.49701C23.0087 0.53849 21.7138 0 20.3636 0H5.09091C2.26545 0 0 2.27444 0 5.11111V46H25.4545V26.8333H29.2727V39.6111C29.2727 41.3055 29.9432 42.9306 31.1366 44.1287C32.33 45.3269 33.9486 46 35.6364 46C36.472 46 37.2995 45.8347 38.0716 45.5137C38.8437 45.1926 39.5452 44.722 40.1361 44.1287C40.7271 43.5355 41.1958 42.8312 41.5156 42.056C41.8354 41.2809 42 40.4501 42 39.6111V15.3333C42 13.57 41.2873 11.96 40.1418 10.81Z" fill="#1890FF"/>
</svg>
